<?xml version="1.0" encoding="utf-8"?>
<svg version="1.1" id="Layer_1" xmlns="http://www.w3.org/2000/svg" xmlns:xlink="http://www.w3.org/1999/xlink" x="0px" y="0px"
	 viewBox="0 0 24 24" style="enable-background:new 0 0 24 24;" xml:space="preserve">
<g>
	<g>
		<path class="st0" d="M12.1,0.5C5.7,0.5,0.5,5.6,0.5,12c0,6.3,5.2,11.6,11.5,11.6c6.3,0,11.6-5.2,11.6-11.5
			C23.6,5.7,18.4,0.5,12.1,0.5z M14.5,12.2c1.3,1.2,2.5,2.5,3.7,3.7c0.1,0.1,0.1,0.2,0,0.3c-0.7,0.7-1.4,1.4-2.1,2.1
			c0,0-0.1,0.1-0.1,0.1c0-0.1-0.1-0.1-0.1-0.2c-1.2-1.2-2.5-2.5-3.7-3.7c-0.1-0.1-0.2-0.1-0.3,0c-1.2,1.3-2.5,2.5-3.7,3.8
			c-0.1,0.1-0.2,0.1-0.3,0c-0.7-0.7-1.4-1.4-2.1-2.1c-0.1-0.1-0.1-0.2,0-0.3c1.2-1.2,2.4-2.5,3.7-3.7c0.1-0.1,0.1-0.2,0-0.3
			C8.2,10.6,7,9.4,5.8,8.2C5.7,8,5.7,8,5.8,7.9c0.7-0.7,1.4-1.4,2.1-2.1C8,5.6,8,5.6,8.2,5.7c1.2,1.3,2.5,2.5,3.7,3.7
			c0.1,0.1,0.2,0.1,0.3,0c1.2-1.3,2.4-2.5,3.7-3.7c0.1-0.1,0.2-0.1,0.3,0c0.7,0.7,1.4,1.5,2.2,2.2c0.1,0.1,0.1,0.2,0,0.3
			c-1.3,1.2-2.5,2.5-3.8,3.7C14.4,12,14.4,12.1,14.5,12.2z"/>
	</g>
</g>
</svg>
