<?xml version="1.0" encoding="utf-8"?>
<!-- Generator: Adobe Illustrator 21.1.0, SVG Export Plug-In . SVG Version: 6.00 Build 0)  -->
<svg version="1.1" id="Layer_1" xmlns="http://www.w3.org/2000/svg" xmlns:xlink="http://www.w3.org/1999/xlink" x="0px" y="0px"
	 viewBox="0 0 24 24.1" style="enable-background:new 0 0 24 24.1;" xml:space="preserve">
<style type="text/css">
	.st0{fill:#FE7F03;}
	.st1{fill:#FE7E01;}
	.st2{fill:#FE7E02;}
	.st3{fill:#FE932B;}
	.st4{fill:#FE942B;}
</style>
<g>
	<g>
		<path class="st0" d="M2.6,10.9c-1.7,0-1.7,0-1.3-1.5c0.3-1.3,0.9-2.4,1.5-3.5C3.2,5.2,3.5,5,4.2,5.6c0.9,0.8,1.6,1.5,0.5,2.7
			C4.4,8.6,4.3,9.1,4.2,9.5C4,10.6,3.5,11.2,2.6,10.9z"/>
		<path class="st0" d="M2.6,13.3c0.8-0.2,1.4,0.1,1.5,1.2c0.1,0.5,0.3,1,0.6,1.4c0.6,1.3,0.4,2-0.8,2.8c-0.5,0.3-0.7,0.1-0.9-0.2
			c-0.9-1.4-1.6-2.8-1.8-4.5C1,13.3,1,13.3,2.6,13.3z"/>
		<path class="st1" d="M11.1,2.4c0.2,0.8-0.1,1.3-1.1,1.5C9.2,4,8.5,4.4,7.9,4.8C7.3,5.1,7,5,6.5,4.6C5,3.2,5,3.1,6.9,2.1
			c0.9-0.5,1.8-0.8,2.8-1.1C11.1,0.7,11.1,0.7,11.1,2.4z"/>
		<path class="st2" d="M11.1,22c0.3,1.3-0.3,1.4-1.4,1.1c-1.4-0.4-2.6-0.9-3.8-1.7c-0.5-0.3-0.6-0.6-0.1-1.1c0.9-1,1.7-1.6,2.9-0.6
			c0.3,0.3,0.8,0.4,1.2,0.4C10.9,20.4,11.4,20.9,11.1,22z"/>
		<path class="st2" d="M13.6,22.1c-0.3-1.2,0.1-1.6,1-1.8c0.5-0.1,1-0.3,1.4-0.5c1.5-0.7,2-0.5,3,0.8c0.3,0.4,0.1,0.6-0.2,0.8
			c-1.4,1-2.9,1.6-4.6,1.9C13,23.4,13.7,22.3,13.6,22.1z"/>
		<path class="st3" d="M18.4,2.6c-1.1-0.7-2.2-1.2-3.5-1.5c-1.5-0.4-1.5-0.4-1.5,1.3c-0.2,0.8,0.1,1.3,1.1,1.4
			c0.5,0.1,1,0.3,1.4,0.6c1.1,0.9,1.8,0.4,2.6-0.5C19.1,3.3,19,3,18.4,2.6z M16,3.9c-0.4-0.3-0.9-0.4-1.3-0.5c-1-0.2-0.9-1-0.7-1.6
			c0.2-0.9,0.8-0.2,1.2-0.2c1.2,0.3,2.3,0.8,3.3,1.6C17.8,4.4,17.1,4.8,16,3.9z"/>
		<path class="st4" d="M23.2,9.4c-0.3-1.2-0.8-2.3-1.4-3.4c-0.5-0.9-0.8-0.9-1.6-0.2c-0.8,0.8-1.1,1.4-0.4,2.3
			c0.3,0.4,0.6,1,0.6,1.5c0.1,1,0.7,1.3,1.6,1.1C23.3,11.1,23.5,10.6,23.2,9.4z M22.6,10.3c-0.5,0.1-1.2,0.4-1.5-0.2
			c-0.4-0.9-0.8-1.9-1.2-2.8c-0.3-0.7,0.8-0.9,1-1.6c1,1.2,1.5,2.5,1.8,3.8C22.8,9.8,23.1,10.2,22.6,10.3z"/>
		<path class="st3" d="M22.1,13.4c-0.9-0.2-1.6,0.1-1.7,1.1c0,0.4-0.2,1-0.5,1.3c-1.1,1.3-0.3,2,0.6,2.8c0.4,0.4,0.7,0.4,1-0.1
			c0.8-1.2,1.3-2.5,1.7-3.8C23.5,13.5,23.2,13.1,22.1,13.4z M22.6,14.9c-0.3,1.3-0.8,2.4-1.6,3.4c-1.1-0.6-1.5-1.4-0.6-2.5
			c0.3-0.4,0.4-0.9,0.5-1.3c0.2-1,1-0.8,1.6-0.7C23.2,14,22.7,14.6,22.6,14.9z"/>
	</g>
</g>
</svg>
