<?xml version="1.0" encoding="utf-8"?>
<svg version="1.1" id="Layer_2" xmlns="http://www.w3.org/2000/svg" xmlns:xlink="http://www.w3.org/1999/xlink" x="0px" y="0px"
	 viewBox="0 0 24 24" style="enable-background:new 0 0 24 24;" xml:space="preserve">
<g>
	<g>
		<path class="st0" d="M11.4,0.7C6,1.2,0.6,6.1,1.3,13.2c0.6,5.6,5.3,10.4,11.9,10.1c6.2-0.3,10.9-5.4,10.7-11.5
			C23.9,5.2,18.1,0,11.4,0.7z M18.3,9c-1.3,1.3-2.5,2.6-3.7,3.9c-0.8,0.9-1.8,1.8-2.6,2.8c-0.4,0.5-0.9,0.5-1.5,0
			c-1.1-0.9-2-2-3.2-2.9c-0.4-0.3-0.6-0.7-0.5-1.2c0.1-0.5,0.4-0.6,0.8-0.7C8,10.8,8.2,11,8.4,11.2c0.8,0.6,1.4,1.3,2.2,2
			c0.6,0.6,0.6,0.6,1.1,0c1.8-1.9,3.6-3.8,5.3-5.7c0.3-0.3,0.7-0.3,1-0.2c0.5,0.1,0.6,0.5,0.6,1C18.6,8.5,18.5,8.8,18.3,9z"/>
	</g>
</g>
</svg>
