<?xml version="1.0" encoding="utf-8"?>
<!-- Generator: Adobe Illustrator 21.1.0, SVG Export Plug-In . SVG Version: 6.00 Build 0)  -->
<svg version="1.1" id="Layer_1" xmlns="http://www.w3.org/2000/svg" xmlns:xlink="http://www.w3.org/1999/xlink" x="0px" y="0px"
	 viewBox="0 0 280 280" style="enable-background:new 0 0 280 280;" xml:space="preserve">
<style type="text/css">
	.st0{fill:#02A862;}
	.st1{fill:#0078BB;}
	.st2{fill:#0473BC;}
	.st3{fill:#0177BC;}
	.st4{fill:#0176BB;}
	.st5{fill:#0276BC;}
	.st6{fill:#0678BC;}
	.st7{fill:#0577BD;}
	.st8{fill:#0377BC;}
	.st9{fill:#0C76BE;}
	.st10{fill:#0DAA64;}
	.st11{fill:#13A964;}
	.st12{fill:#1479C0;}
	.st13{fill:#0BAA64;}
	.st14{fill:#1778BF;}
	.st15{fill:#1277BE;}
	.st16{fill:#12AA66;}
	.st17{fill:#0BA861;}
	.st18{fill:#21B06F;}
	.st19{fill:#0CAC65;}
	.st20{fill:#1A7DC1;}
	.st21{fill:#1579C0;}
	.st22{fill:#1B82C4;}
	.st23{fill:#197DC1;}
	.st24{fill:#2A85C5;}
	.st25{fill:#0EAB68;}
	.st26{fill:#1D80C4;}
	.st27{fill:#1F80C3;}
	.st28{fill:#1B82C3;}
	.st29{fill:#16AA65;}
	.st30{fill:#17AA66;}
	.st31{fill:#2383C4;}
	.st32{fill:#23B170;}
	.st33{fill:#16AD68;}
	.st34{fill:#2485C5;}
	.st35{fill:#0E75BE;}
	.st36{fill:#1B80C3;}
	.st37{fill:#1078BF;}
	.st38{fill:#1179C0;}
	.st39{fill:#1B7EC2;}
	.st40{fill:#147AC0;}
	.st41{fill:#1D7DC1;}
	.st42{fill:#39B77C;}
	.st43{fill:#177BC0;}
	.st44{fill:#0CA861;}
	.st45{fill:#308DC7;}
	.st46{fill:#0D79BF;}
	.st47{fill:#036EBA;}
	.st48{fill:#15AA65;}
	.st49{fill:#06A255;}
	.st50{fill:#1AAA65;}
	.st51{fill:#036FBA;}
	.st52{fill:#0069B7;}
	.st53{fill:#4294CC;}
	.st54{fill:#14AC68;}
	.st55{fill:#3791CB;}
	.st56{fill:#0570BB;}
	.st57{fill:#0671BB;}
	.st58{fill:#066BB9;}
	.st59{fill:#01A155;}
	.st60{fill:#99C6E4;}
	.st61{fill:#7EB8DD;}
	.st62{fill:#8CBFE1;}
	.st63{fill:#B6D7EC;}
	.st64{fill:#A2CCE7;}
	.st65{fill:#FEFEFE;}
	.st66{fill:#FDFEFE;}
	.st67{fill:#FDFEFD;}
	.st68{fill:#FCFDFD;}
	.st69{fill:#0378BC;}
	.st70{fill:#F1F7FB;}
	.st71{fill:#F6F9FC;}
	.st72{fill:#F1F9F5;}
	.st73{fill:#F2F7FB;}
	.st74{fill:#DBF2E9;}
	.st75{fill:#F3F8FB;}
	.st76{fill:#C0DDEE;}
</style>
<g>
	<g>
		<path class="st0" d="M208.8,155.1c-12.8-0.1-25-3.2-37-7.7c-4.3-0.2-7.4-2.3-10-5.6c-3.6-3-7.2-5.9-10.8-8.9
			c-0.7-0.4-1.7-0.4-2.2-1.1c-3.4-5.1-7.5-4.4-12.4-2.1c-2.9,1.4-6,3.9-9.7,2.2c-0.1-2.4,1.2-3.9,2.7-4.8
			c-16.3,1.7-31.3,7.1-41.1,22.2c-2.3,1.3-4.3,3.6-7.4,2.5c4.6-10.3,12.3-17.6,22.8-23.7c-12.9-0.2-24.2-2.5-34.1-9.6
			c-1.3,0.1-2-0.9-2.8-1.7c-0.2-0.3-0.2-0.6,0-0.9c0.2-0.8,0.6-1.4,1.2-1.9c9.8-5.6,20.3-8.1,30.8-8.1c-10.3-4.6-18.2-12.8-23.1-24
			c-1.3-3.2-0.1-5.2,3.1-6.1c11.3-0.5,21.6,2.8,32,9.3c-6.6-11.3-8.6-22.6-7.9-34.5c0.5-1.8,1.5-2.7,3.4-2.5
			c10.3,5,19.2,11.6,24.2,23c1.1-12,5-22.5,10.9-32.4c1-0.9,2-1.5,3.2-0.3c4.9,10.2,10,20.3,10.8,33.3c6.4-10.8,14.1-18.7,24-24.3
			c0.5,0,0.9,0.2,1.3,0.5c0.7,13.4,0.1,26.6-6.8,39c9.5-4.7,19.5-6.7,29.7-7.5c2.7-0.2,5.6-1.1,8.2,0.7c0.8,5.1-2.3,9-5,12.6
			c-4,5.3-8.7,10.1-14.9,13.5c2.5,0.7,4.9,0.4,7.2,1c4.8,1,9.7,1.9,14.3,3.9c1.3,0.6,2.5,1.5,3.8,2.2c1.8,1.2,4,2.1,4.2,4.7
			c-0.2,1.4-1.2,2.2-2.2,2.9c-3.5,2.1-7,4.1-10.9,5.4c-6.3,1.8-12.7,2.5-19.2,2.1c-2-0.1-3.9-0.1-6-0.4c0.9,0.2,1.6,0.5,2.3,0.9
			c2.8,1.6,5.3,3.7,8,5.5c6,5.3,11.3,11.1,15.5,18C209.2,153.3,209.6,154.2,208.8,155.1z"/>
		<path class="st1" d="M126.6,132c4.7-0.9,9.2-2.7,13.3-4.9c3.1-1.6,4.9-1.8,6.9,1c1.2,1.7,2.8,3.2,4.2,4.8
			c-22.1,8.9-44.3,17.3-65.9,27.2c-24.6,11.2-48.4,23.8-70.6,39.2c-0.7,0.5-1.4,0.8-2.8,1.7c1.9-6.2,3.5-11.7,5.2-17.3
			c0.6-2.1,2.6-2.4,4.2-3.2c19.6-10.3,39.8-19.4,59.8-28.8c2.4-1,4.7-2,7.1-3c4.4-4.7,10.6-5.9,16.1-8.2
			C111.5,137.5,118.6,133.4,126.6,132z"/>
		<path class="st1" d="M161.9,141.9c3.3,1.9,6.6,3.7,10,5.6c-13.8,8.9-27.7,17.6-40.5,27.9c-4.3,3.4-8.4,7-11.6,11.5
			c-3,4.3-2.1,6.9,2.8,8.8c3.3,1.3,6.8,1.5,10.3,1.6c-0.4,2.6-2.8,0.5-3.9,1.7c-6.3,0.2-12.6,0.8-18.9-0.8c-7.9-2-9.6-6.3-5.1-13.2
			c4.3-6.7,10.3-11.7,16.5-16.6C134.1,158.2,147.9,150,161.9,141.9z"/>
		<path class="st2" d="M106.9,49.2c-1.7-0.3-3,0-3,2.1c-1.4,2.6-4,3.9-6.1,5.7c-5.6,4.6-10.7,9.8-14.8,15.8c-1.1,1.6-2.2,3.3-4,4.3
			c-2.5,0.8-3.8,2.1-2.1,4.8c-0.2,3.8-2.3,6.9-3.4,10.4c-1.6,5.3-2.9,10.6-3.2,16.1c-0.1,2.4-0.5,4.6-2,6.6c-0.5,0.4-1,0.8-1.5,1.2
			c-1.5-19.3,4.5-36.4,16.2-51.5c26.3-33.8,76.1-39,108.8-11.5c0.1,0.8,0,1.3-1,0.9c-3.4-2-6.7-4-10.1-6c0,0-0.5-0.1-0.5-0.1
			c-1.9-0.4-3.8-0.7-5.7-1.5c-8.1-3.6-16.6-5.3-25.4-6c-1.8-0.2-3.6-0.3-5.2-1.3c-0.7-1.2-1.4-0.2-2.1,0c-1.2,1-2.7,1.2-4.2,1.4
			c-9.4,1.4-18.6,3.7-27.1,8C109.6,49.2,108.3,49.5,106.9,49.2z"/>
		<path class="st3" d="M213.4,112c-4.9-1.3-9.7-2.6-14.6-3.8c1.7-2.8,4.8-2.6,7.4-3.5c3.9-1.3,8-2,12.1-2.8c1.5-0.3,3,1.2,4.6,0.2
			c14.2-3.1,28.3-6.2,42.5-9.3c0.1,0.4,0.3,0.7,0.4,1.1c-14.7,8-29.3,16.1-44,24.1c-0.3,0.5-0.5,0.5-0.8,0c-0.8-2-3.1-2.5-4.3-4.1
			c0.8-3.3,4.1-2.7,6.2-4.2C219.8,110.7,217,112.7,213.4,112z"/>
		<path class="st4" d="M237.7,188.8c3.3,3.5,6.2,6.5,9.2,9.7c-9.5,3.4-11.7-5.6-17.6-9.6c0,2.5-0.1,4.4,0,6.3c0.1,2.3,0.1,4-3.2,4.1
			c-3.5,0.1-3.6-1.7-3.6-4.3c0.1-7,0.1-13.9,0-20.9c-0.1-2.6,0.9-3.5,3.4-3.4c3.3,0.2,6.6,0,10,0.1c6.3,0.3,10.6,3.4,11.2,7.8
			C247.6,183.2,244.8,186.4,237.7,188.8z"/>
		<path class="st5" d="M161.4,199.9c-3.7-0.2-6.8-0.9-9.4-2.9c-1.7-1.4-4.1-3.7-2.6-5.2c1.4-1.5,5-1.9,7,0.6c2,2.4,4.2,3.1,7,1.9
			c1.3-0.5,2.4-1.3,2.6-2.8c0.2-1.8-0.8-2.9-2.3-3.4c-2.6-1-5.4-1.8-8-2.8c-3.2-1.2-5.5-3.3-5.5-6.9c0-3.8,2.4-6.1,5.8-7.3
			c4.7-1.8,9.2-1.3,13.2,1.8c1.5,1.2,3.6,3.2,2.2,4.8c-1.2,1.3-4.1,0.9-6.1,0c-0.8-0.4-1.3-1.6-2.1-2c-2.2-1.1-4.5-1-5.7,1.3
			c-1.3,2.6,1,3.5,2.9,4.1c1.9,0.7,3.8,1.1,5.7,1.7c3.9,1.3,6.9,3.7,6.8,8.2c-0.2,4.6-3.3,7-7.5,8.2
			C163.8,199.5,162.4,199.7,161.4,199.9z"/>
		<path class="st6" d="M251.3,185c0-3.5,0.1-7,0-10.5c-0.1-2.6,0.5-4,3.5-3.9c4.3,0.2,8.6,0.1,13,0c1.8,0,2.8,0.5,2.8,2.5
			c0,2.1-1.1,2.5-2.9,2.5c-1.8,0-3.7,0.1-5.5,0c-2.3-0.1-4.1-0.1-4.1,3.3c-0.1,3.4,1.5,3.9,4.2,3.7c1.7-0.1,3.3,0,5,0
			c1.6,0,2.5,0.5,2.5,2.3c0,1.6-0.5,2.4-2.2,2.6c-2.9,0.2-6.7-1.3-8.7,0.8c-2,2-0.6,5.7-0.7,8.6c0,2.7-1.8,2.2-3.4,2.3
			c-1.9,0.1-3.7,0.2-3.6-2.7C251.4,192.6,251.3,188.8,251.3,185z"/>
		<path class="st7" d="M177.2,184.8c0-15.6,0.7-16.1,16.6-14.2c2,0.3,2.5,1.1,2.4,2.8c0,1.8-1,2.2-2.6,2.2c-1.8,0-3.7,0-5.5,0
			c-2.3-0.1-4.1-0.1-4.1,3.2c0,3.4,1.4,3.9,4.2,3.7c1.8-0.1,3.7,0,5.5,0c1.4,0,2.1,0.7,2.1,2.2c0,1.5-0.4,2.9-2.1,2.6
			c-8.3-1.6-10.8,2-9.6,9.8c0.4,2.7-2.1,1.8-3.6,1.9c-1.7,0.1-3.4,0.2-3.3-2.4C177.2,192.7,177.2,188.8,177.2,184.8z"/>
		<path class="st8" d="M205.3,187.3c0-2.3-0.1-4.7,0-7c0.2-3.1-0.1-5.3-4.1-4.7c-1.9,0.3-2.7-0.7-2.7-2.6c0-2.2,1.3-2.3,3-2.3
			c4.8,0,9.7,0,14.5,0c1.5,0,3-0.3,3.1,2.1c0.1,2.2-0.9,3.1-2.9,2.8c-4-0.6-4.2,1.7-4.1,4.8c0.2,5.2-0.1,10.3,0.1,15.5
			c0.1,2.7-0.9,3.4-3.5,3.3c-2.5,0-3.7-0.6-3.5-3.4C205.5,193,205.3,190.2,205.3,187.3z"/>
		<path class="st9" d="M221.2,118c0.3,0,0.5,0,0.8,0c-0.8,12.5-3.6,24.5-10.1,35.4c-0.5,0.8-0.5,4.1-3.1,1.7
			c-0.2-0.8-0.5-1.5-0.7-2.3c0.2-1.5,0.5-2.9,1.2-4.3c4.2-7.8,7-16.1,8.3-24.9c0.2-1.3,0.6-2.6,1.5-3.7
			C219.8,119.3,220.5,118.6,221.2,118z"/>
		<path class="st10" d="M145.5,217.9c-0.8,3.6,0.3,6-1.8,9.4c-1.2-4.8-0.9-8.7-0.5-12.3c0.2-1.8,1.9-1.3,2.8,0c1.2,1.9,2.2,4,3.8,7
			c0.2-3.4,0.3-5.7,0.4-8c0.5,0,1,0,1.5,0c0.9,3.6,0.6,7.5,0.1,11.1c-0.3,1.9-2,0.9-2.7-0.3C148,222.9,147,220.8,145.5,217.9z"/>
		<path class="st11" d="M60.9,213.4c1.7,4.1,0.9,7.8,0.8,11.4c-0.1,1.8-1.8,1.7-2.7,0.3c-1.3-1.9-2.2-4-3.5-6.5
			c-1.5,2.4,0.4,5.3-1.9,7.9c-1.5-4.2-0.9-7.9-0.6-11.5c0.2-1.9,1.9-1.4,2.7-0.1c1.2,1.9,2.2,4,3.5,6.6
			C60.6,218.8,58.8,216,60.9,213.4z"/>
		<path class="st12" d="M40.9,240.1c0.4-3.2,1.2-6.2,5-6.3c4-0.1,5.2,3,5.2,6.4c0.1,3.4-1.6,6.3-4.9,6.5
			C42.6,246.8,41.2,243.5,40.9,240.1z"/>
		<path class="st13" d="M165.6,219.9c1.4-2-2.1-6.3,3.3-6.1c4.1,0.1,6,2.4,6,6.3c-0.1,3.9-2.2,6.1-6.3,6
			C163.3,226,167.3,221.7,165.6,219.9z"/>
		<path class="st14" d="M72.9,239.7c-0.5,3.7-1.8,7-5.4,7c-3.3,0-5-3.1-5-6.4c0-3.4,1.2-6.5,5.2-6.5C71.5,233.8,72.2,237,72.9,239.7
			z"/>
		<path class="st15" d="M190.7,246.5c-2.3-0.2-2.3-2.2-3.4-3c-1.1,0.7-0.2,2.5-1.9,2.8c-0.2-0.3-0.6-0.7-0.6-1.1
			c-0.1-2.5-0.2-5,0-7.5c0.1-1.3-0.9-3.2,1.3-3.7c1.3-0.3,2.7-0.3,3.8,0.7c1.5,1.3,1.5,2.9,1.1,4.6
			C190.1,242.5,189.9,244.1,190.7,246.5z"/>
		<path class="st16" d="M106.3,226.8c-2.8-4.3-5.7-5.6-8.9-0.3c0-4.5,1.9-8.1,3.4-11.6c0.7-1.6,1.8-1.1,2.4,0.3
			c1.4,3.5,2.7,7,4,10.5C106.9,226,106.6,226.4,106.3,226.8z"/>
		<path class="st17" d="M220.1,225.8c-3.2,0.9-3-2.2-4.6-2.8c-1.2,0.6,0.3,2.8-2,3c-1.3-3.6-0.9-7.4-0.4-10.9c0.4-2.4,3.4-1.5,5-0.8
			c2.5,1,3,3.8,1.5,5.4C217.3,222.1,218.7,223.6,220.1,225.8z"/>
		<path class="st18" d="M75.5,224.8c-3.9,1.7-6.8,2.4-7.5,0.7c-1.4-3.3-1.3-7.4-0.1-10.7c0.7-2,3.6-1.1,5.7-0.5
			c0.6,2-10.6,3.1,0.8,5.3C70,221.6,66.9,223.5,75.5,224.8z"/>
		<path class="st19" d="M123.9,226.1c-1.6-3.7-0.9-7.4-0.9-11c0-1.7,1.6-1.2,2.7-1.3c1.8-0.1,3.3,0.4,4.1,2.2c0.7,1.6,0.6,3.9-1,4.4
			C125.8,221.3,124.7,223.4,123.9,226.1z"/>
		<path class="st20" d="M17.8,233.9c2.9,4.2,4.6,8.1,4.8,13c-2.7-4.4-5.2-5.7-7.7,0.4c-0.3-0.4-0.7-0.8-1-1.2
			C15.2,242,16.5,237.9,17.8,233.9z"/>
		<path class="st21" d="M112.7,240c-0.3,2.1-0.6,4.3-2.7,5.6c-1.3,0.8-2.8,1.4-4.3,0.8c-1.6-0.7-0.8-2.3-0.9-3.5
			c-0.1-1.2-0.3-2.4,0-3.5c0.6-1.9-2-5.5,2.6-5.4C111.4,234,112.2,236.8,112.7,240z"/>
		<path class="st22" d="M31,234.1c1.4,3,1.1,6.1,0.8,9.2c-0.1,1.7-1.3,3.3-3.1,3.5c-2.1,0.2-3.4-1.5-3.6-3.4
			c-0.3-3-0.1-6.1-0.1-10.6c2.8,3.6,1.4,6.5,1.9,9.1c0.2,1,0.2,2.2,1.5,2.2c1.2,0,1.4-1.1,1.5-2.2C30.2,239.2,29.6,236.6,31,234.1z"
			/>
		<path class="st23" d="M246.4,234c1.3,4,2.6,8,3.9,12c-3.3-3.5-6-4.6-8.8,0.9C241.9,241.9,243.4,237.9,246.4,234z"/>
		<path class="st24" d="M158.2,243.1c-0.3,1.2-0.1,2.7-1.8,3.2c-2-1.5-1-4.4-3-6.3c-0.1,2.2-0.2,4.1-0.3,6.1c-0.5,0-0.9,0.1-1.4,0.1
			c-0.8-3.7-0.4-7.6-0.2-11.4c0-0.7,0.7-1,1.4-1c0.8,0,1.2,0.5,1.4,1.1c0.6,2,1.3,4.1,1.9,6.2c1.5-0.2,0.4-2.1,1.7-2.4
			c0.7,0.2,1.2,0.6,1.5,1.3C159.5,241.4,159,242.3,158.2,243.1z"/>
		<path class="st25" d="M248.9,212.6c1.7,3.5,1,5.9,1.2,8.2c0.1,1.3,0,2.9,1.7,3.1c2.2,0.1,2-1.7,2.2-3.2c0.2-2.3-0.5-4.6,1.2-8.2
			c1.1,4.9,1.5,8.5-0.1,12.1c-0.6,1.3-2,1.7-3.4,1.6c-1.7-0.1-3.1-1-3.3-2.5C247.7,220.5,247.5,217.2,248.9,212.6z"/>
		<path class="st26" d="M81.6,233.8c0.9,3.3,0.5,6.3,0.4,9.2c-0.1,2-1.4,3.6-3.3,3.8c-1.8,0.1-3.1-1.6-3.4-3.2
			c-0.5-3.1-0.7-6.4,0.5-10.9c1.6,3.4,0.9,5.6,1.1,7.8c0.1,1.4-0.5,3.5,1.8,3.4c1.8-0.1,1.1-2,1.4-3.2
			C80.6,238.5,79,235.8,81.6,233.8z"/>
		<path class="st27" d="M164.1,246.9c0.6-4.9,2.5-8.8,4.2-14.4c2.5,5.3,3.9,9.4,4.7,14.3C168.4,242.5,168.4,242.5,164.1,246.9z"/>
		<path class="st28" d="M181.6,234.1c0.9,2.8,0.5,5.8,0.3,8.7c-0.1,2.1-1.3,4.1-3.7,3.9c-1.9-0.2-3.1-1.9-3.2-3.9
			c-0.1-2.9-0.5-5.8,0.5-9.4c2.3,2.9,1,5.6,1.4,8c0.2,1.1-0.1,2.6,1.6,2.6c1.5-0.1,1.5-1.5,1.5-2.7c0-2.4,0-4.8,0-7.2
			C180.5,234.1,181,234.1,181.6,234.1z"/>
		<path class="st29" d="M187.3,212.6c1.3,4.4,0.9,7.4,0.8,10.3c-0.1,1.9-1.3,3-3.1,3.4c-1.8,0.3-3.6-0.2-4.1-2
			c-1.1-3.4-1.3-6.9,0.4-11.3c1.5,3.5,0.8,6.1,1,8.6c0.1,1.2,0.3,2.4,1.9,2.4c1.6,0,1.7-1.3,1.8-2.5
			C186.3,219,185.5,216.4,187.3,212.6z"/>
		<path class="st30" d="M263.2,217.2c2,1.9,5.5,2.6,4.7,6.3c-0.4,1.6-1.4,2.7-3,2.8c-2.1,0.2-3.4-0.8-4-2.7c1.1-1.4,1.7-0.5,2.6,0.1
			c0.7,0.5,1.6,0.4,2.1-0.4c0.5-0.9,0-1.6-0.8-2c-0.6-0.4-1.1-0.7-1.7-1c-1.6-0.9-2.3-2.4-1.8-4.2c0.4-1.3,1.3-2.3,2.8-2.5
			c1.9-0.2,3.1,0.8,3.5,2.7C266.3,218.5,264.6,214.4,263.2,217.2z"/>
		<path class="st31" d="M135.4,246.8c0.5-5,1.8-9.1,4-13.6c2.5,4.5,3.5,8.7,4.4,13.4C140.9,242.9,138.2,241.1,135.4,246.8z"/>
		<path class="st10" d="M31.1,214c1.4,2.9,1,5.9,0.9,8.8c-0.1,2-1.5,3.3-3.6,3.5c-2.1,0.2-3.7-0.9-4-2.9c-0.5-3.1-0.8-6.3,0.7-10.7
			c1.7,3.5,0.9,6.1,1.1,8.6c0.1,1.4,0.3,2.8,2.1,2.7c1.5-0.1,1.6-1.4,1.7-2.6C30.2,218.9,29.5,216.3,31.1,214z"/>
		<path class="st32" d="M231.4,225.6c-2.2,0.8-5.1,1.6-5.8-0.3c-1.2-3.3-1.3-7.3,0-10.6c0.7-1.7,3.6-1.1,5.4-0.3
			c-0.2,2-1.5,1.4-2.3,1.7c-1.9,0.7-1.8,2.2-0.3,2.6c4,1.1,4.4,1.7,0,2.6c-0.7,0.2-1.1,0.8-1,1.5
			C227.9,224.8,230.4,223.3,231.4,225.6z"/>
		<path class="st33" d="M41,216.1c1,1.6,2.1,3.3,3.3,5.2c1.2-2.5-0.3-5.1,1.7-8.3c1.5,4.8,1.2,8.7,0.6,12.5
			c-0.2,1.5-2.1,0.7-2.8-0.6c-1-1.9-2-3.8-3.2-6.1c-1.5,2.5,0.6,5.4-1.5,7.3c-1-2.4-0.3-4.9-0.4-7.4C38.5,217,39.4,216.1,41,216.1z"
			/>
		<path class="st34" d="M120.3,234.6c-3.1,2.1-1.8,1.8-1.2,4.6c0.5,2-1.4,4.7,0.9,6.9c-1,0.8-2.2,0.6-3.3,0.4
			c-1.2-0.1-1.6-1-1.6-2.1c0-2.8-0.3-5.7,0.1-8.5C115.7,232.2,118.4,234.2,120.3,234.6z"/>
		<path class="st35" d="M60.8,246.5c-3.4-0.2-3.4-2.2-4.6-3.1c-1.9,0,0,2.7-2.5,2.7c0-2.7-0.1-5.4,0-8.2c0.1-1.3-0.9-3.2,1.1-3.9
			c1.4-0.4,3-0.5,4.2,0.8c1.3,1.4,1.7,3.4,0.7,4.6C57.8,241.8,58.2,243.8,60.8,246.5z"/>
		<path class="st36" d="M257,232.8c1.7,4.4,0.2,7.6,1.8,10.5c0.3,0.5-0.6,2.3-1.2,2.5c-1.9,0.5-3-2-5.1-1.7
			c-0.6,0.1-0.7-1.4-0.3-2.1C253.6,239.2,255.1,236.5,257,232.8z"/>
		<path class="st37" d="M221,237c0.7,1.3,1.5,2.5,2.3,4.1c1.4-2.3-0.4-4.9,1.9-7.9c1.1,4.5,0.7,8.4,0.5,12.1
			c-0.1,1.7-1.6,1.4-2.3,0.2c-1-1.8-1.8-3.8-2.8-5.9c-1.7,2.1,0.4,4.8-1.5,6.5c-1-2.3-0.3-4.8-0.5-7.2
			C218.4,236.9,219.4,236.5,221,237z"/>
		<path class="st38" d="M210,237c0.7,1.3,1.5,2.6,2.4,4.1c1.3-2.3-0.3-5,1.8-8.1c1.1,4.8,0.9,8.7,0.3,12.6c-0.2,1.4-1.6,0.7-2.1-0.2
			c-1-1.9-1.8-3.8-2.9-5.9c-1.7,2.1,0.4,4.8-1.5,6.5c-1-2.3-0.3-4.8-0.5-7.2C207.4,236.9,208.4,236.5,210,237z"/>
		<path class="st39" d="M234.6,234.5c-5,2.9-5,3-0.9,5.5c0.8,1.5-8.2,2-0.5,4.3c0.3,0.1,0.6,0.8,0.6,1.2c-0.2,1-1.1,1.1-1.9,1.1
			c-1.1,0-2.8,0.4-2.9-1c-0.3-3.6-0.6-7.3,0.1-10.8C229.5,233,232.1,233.8,234.6,234.5z"/>
		<path class="st40" d="M97.7,234.3c-4.9,3.2-4.9,3.4-1,5.7c0.9,1.6-7.9,2-0.5,4.4c0.3,0.1,0.7,0.8,0.6,1.1
			c-0.3,1.3-1.5,1.1-2.5,1.1c-1,0-2.3,0.1-2.4-1.2c-0.2-3.5-0.6-7.1,0.1-10.4C92.5,232.8,95.1,234.1,97.7,234.3z"/>
		<path class="st41" d="M261.1,242.8c1.8-0.5,2.5,2.6,4.1,0.6c1.3-1.6-0.3-2.3-1.2-3.2c-1.1-1.1-0.2-1.7,0.4-2.5
			c0.5-0.7,0.9-1.6-0.6-1.5c-0.8,0.1-2,1.2-1.9-0.8c0.1-0.9,0.8-1.5,1.6-1.7c1-0.2,2.3,0.1,2.5,1.1c0.5,3.1,1.8,6.2,1,9.4
			c-0.3,1.3-1.4,2.6-2.8,2.5C262.3,246.6,261.2,245.2,261.1,242.8z"/>
		<path class="st42" d="M118.3,225.6c-4.7,1.8-6.8,0.4-6.1-4.2c0.4-2.5-1.1-7,1.1-7c2.9,0.1,1.5,4.4,1.2,6.7
			C114.3,224.1,117.3,223.5,118.3,225.6z"/>
		<path class="st43" d="M204,233.8c-0.6,3-3.3,1.5-3.5,3.5c-0.3,2.6,3,0.9,3.2,2.9c-0.7,1.3-7.4,2.4-0.3,4.3c0.2,0.1,0.4,1,0.2,1.2
			c-0.6,1-1.7,0.8-2.7,0.8c-1,0-2.2-0.2-2.2-1.4c-0.1-3.3-0.6-6.7,0.1-9.9C199.4,232.5,201.9,234.4,204,233.8z"/>
		<path class="st44" d="M207.1,214.1c-0.2,2.6-3.6,0.9-3.2,3.6c0.3,1.9,2.5,0.6,3.3,2.3c-2.8,0.9-4.1,3-4.1,6.2
			c-1.9-3.8-1.7-7.7-1.1-11.2C202.5,212.6,205.2,214,207.1,214.1z"/>
		<path class="st45" d="M66.8,117c0.9,0.6,1.9,1.1,2.8,1.7c-2,6,0.9,11.5,1.5,17.3c0.5,1,0,1.1-0.9,0.9
			C68.3,130.4,66.4,123.9,66.8,117z"/>
		<path class="st46" d="M86.7,246.9c-1.8-4.3,0.9-8.8-2.3-12.1c4.5-1.5,4.4-1.5,3.6,2.8c-0.3,1.4,0,3-0.1,4.4
			C87.8,243.4,88.3,245,86.7,246.9z"/>
		<path class="st47" d="M158.8,239.9c-0.3-0.4-0.6-0.7-0.9-1.1c0.2-1,0.4-1.9,0.7-2.9c0.3-0.9,0.4-2.1,1.8-1.9
			c1.4,0.1,1.4,1.2,1.4,2.2c0,2.8,0,5.6,0,8.4c0,1-0.2,2.1-1.7,1.4c-0.8-1.9-0.8-3.9-0.6-5.9c0-0.1-0.1-0.3-0.2-0.3
			C159.1,239.8,158.9,239.9,158.8,239.9z"/>
		<path class="st48" d="M241.5,213.6c1.2,3.4,0.6,6.5,0.6,9.6c0,1.4-0.5,2.7-2.1,3c-1.9,0.4-3.2-0.2-3.7-2.2
			C243.9,223.4,237.7,216.6,241.5,213.6z"/>
		<path class="st49" d="M80.1,213.8c3.5,3.2-2.4,9.6,5,10.8c-4.5,2.7-5.9,2.1-5.8-2.3C79.3,219.6,78.5,216.6,80.1,213.8z"/>
		<path class="st50" d="M12.8,214.5c2.4-1.1,4.3-0.9,6.7-0.2c-4,3.2-0.9,8-3.2,12.3C13.6,222.5,17.4,217.4,12.8,214.5z"/>
		<path class="st51" d="M36.2,246.1c-1.3-3.8,1.2-8.2-2.7-11.8c3.2-0.1,6.8-2.2,4.4,3.6c-1,2.4-0.2,5.6-0.2,8.4
			C37.2,246.1,36.7,246.1,36.2,246.1z"/>
		<path class="st52" d="M194.7,234.3c1.1,3.9,1.3,7.7,0,11.5C193.6,242,193.7,238.1,194.7,234.3z"/>
		<path class="st53" d="M191,54c0.3-0.3,0.6-0.6,1-0.9c4.4,3,7.9,6.9,10.6,11.5C198.7,61.1,194.8,57.6,191,54z"/>
		<path class="st54" d="M136.6,225.9c-1.8-4-2-7.9,0-11.9C136.6,218,136.6,222,136.6,225.9z"/>
		<path class="st55" d="M218.9,103c-0.7-4-1.4-7.9-2.1-11.9c-0.3-1,0.1-1.2,1-0.9c0.8,3.1,1.7,6.2,2.4,9.4c0.4,1.7,1,2.6,2.8,2.6
			C221.9,103.5,220.3,102.9,218.9,103z"/>
		<path class="st56" d="M221,237c-4.2,2.2-1.1,6-2,9c-2.4-3.5-0.7-7.4-0.9-11.1c0-0.3,0.7-0.8,1-0.8
			C220.6,234.4,220.8,235.7,221,237z"/>
		<path class="st57" d="M210,237c-4.1,2.2-1.1,6-2,9c-2.3-3.5-0.7-7.4-0.9-11.1c0-0.3,0.7-0.8,1-0.8
			C209.5,234.4,209.8,235.7,210,237z"/>
		<path class="st58" d="M128.6,234.4c2.3,2,1.4,4.4,1.6,6.6c0.1,1.1-0.5,2.4,1,3c0.9,0.4,2.2,0.5,1.5,1.8c-0.2,0.5-1.5,0.5-2.2,0.6
			c-1.1,0-1.8-0.6-1.9-1.8C128.6,241.2,128.6,237.8,128.6,234.4z"/>
		<path class="st59" d="M41,216.1c-3.5,2.7-1.5,6.5-2,9.8c-2.5-3.4-0.9-7.3-1-10.9C38,213.5,39,213.6,41,216.1z"/>
		<path class="st60" d="M217.8,90.2c-0.3,0.3-0.6,0.6-1,0.9c-1.6-3.6-3.2-7.1-3.8-11C215.5,83,216.6,86.6,217.8,90.2z"/>
		<path class="st61" d="M70.2,136.8c0.3-0.3,0.6-0.6,0.9-0.9c1.6,2.4,2,5.4,3,8c0.4,1-0.1,1.2-0.9,0.9
			C72.2,142.2,71.2,139.5,70.2,136.8z"/>
		<path class="st62" d="M128.9,198.9c1.3-0.6,2.6-1.1,3.9-1.7c1.7-0.3,3.5-0.5,5.7,0.4C134.9,198.1,132.1,199.7,128.9,198.9z"/>
		<path class="st63" d="M73.1,144.9c0.3-0.3,0.6-0.6,0.9-0.9c0.9,2,1.9,4,2.8,6C74.6,148.9,74,146.8,73.1,144.9z"/>
		<path class="st64" d="M158.8,239.9c0.3-0.5,0.8-1.9,1.1-0.2c0.4,2,0.1,4.2,0.1,6.3c-0.6-1-1.2-1.9-1.8-2.9
			C158.4,242.1,158.6,241,158.8,239.9z"/>
		<path class="st65" d="M150.2,106.1c1-22.1,9.6-39.7,27.4-52.4C181.6,72.9,170.1,94.6,150.2,106.1z"/>
		<path class="st66" d="M207.1,84c-12.8,18.8-30.7,27-52.9,27.7C163.1,94.7,189.9,80.6,207.1,84z"/>
		<path class="st65" d="M131.7,116.1c-18.2-6.2-34.9-12.3-46.8-26.9c-1.8-2.2-4.5-5.3-3.3-7.3c1.3-2.2,5.1-0.6,7.8,0
			C108.5,86.3,122.5,97.2,131.7,116.1z"/>
		<path class="st66" d="M143,105.3c-8.9-20.4-9.8-40.7-0.4-61.1C153.5,57.7,153.8,90.8,143,105.3z"/>
		<path class="st67" d="M71.7,116.5c21.2-9,41.2-8,60.5,4.7C116.1,127.9,88.7,127.8,71.7,116.5z"/>
		<path class="st66" d="M218.8,117.1c-21.7,9.8-42.3,9.1-64.1,0.9C176.3,106.7,196.9,109.1,218.8,117.1z"/>
		<path class="st66" d="M203.6,151.8c-23.5-0.4-47.5-14.4-52.1-29.9C172.8,124.7,189.8,134.4,203.6,151.8z"/>
		<path class="st66" d="M136,109.8c-16.3-15.8-27.3-33-28.7-55.6C126.1,67.6,135.8,85.5,136,109.8z"/>
		<path class="st68" d="M126.6,132c-9.7,4.2-19.4,8.4-29.1,12.7c-3.2,1.4-6.4,2.8-9.5,4.1c6.1-11.9,16.9-17.2,29-20.7
			c4.3-1.2,8.7-2.2,13.3-1.9C130.1,128.9,127.5,130,126.6,132z"/>
		<path class="st69" d="M209.1,125c-5.5,3.4-11,6.7-16.5,10.1c-2.6-1.8-5.3-3.5-7.9-5.3c0.1-2,2-1.8,3.2-2.5
			C195.1,127.3,202.2,126.5,209.1,125z"/>
		<path class="st70" d="M229.4,179.9c-0.8-3.6,0.9-4.6,4-4.3c3.1,0.3,7,0.2,6.7,4.6c-0.3,4.3-4.1,3.8-7.2,4.1
			C229.1,184.7,228.9,182.5,229.4,179.9z"/>
		<path class="st71" d="M45.9,235.9c2.4,0.3,3.2,2,3.2,4.1c0,2-0.6,3.8-2.7,4c-2.5,0.2-3.4-1.6-3.5-3.8
			C42.8,238.1,43.5,236.5,45.9,235.9z"/>
		<path class="st72" d="M169.4,216c2.2,0.4,3.3,1.8,3.4,3.8c0.1,2.3-1,4.1-3.4,4c-2.7-0.1-1.3-2.6-1.3-3.9
			C168.1,218.6,166.9,216.5,169.4,216z"/>
		<path class="st73" d="M70.9,240.1c-0.4,2-0.9,4.1-3.5,4c-2.3-0.1-3-2.1-3-3.9c0-2,0.6-4.2,3.2-4.2C70.1,236,70.6,238.1,70.9,240.1
			z"/>
		<path class="st74" d="M216.3,219.7c-1.6-0.2-1.3-1.3-1.4-2.2c0-0.9,0.3-1.6,1.4-1.5c1.1,0.1,1.8,0.7,1.8,1.9
			C218,219.1,217.2,219.5,216.3,219.7z"/>
		<path class="st75" d="M106.7,240c0.7-1.2-1.3-3.8,1.6-3.7c1.8,0,2.5,1.9,2.5,3.7c0,1.7-0.6,3.6-2.5,3.7
			C105.5,243.8,107.4,241.2,106.7,240z"/>
		<path class="st76" d="M58.3,237.9c-0.1,0.8-0.3,1.7-1.3,1.8c-1.4,0.2-1.6-0.8-1.7-1.8c-0.1-0.8,0-1.7,1.1-1.8
			C57.8,235.9,58.1,236.8,58.3,237.9z"/>
	</g>
</g>
</svg>
