<?xml version="1.0" encoding="utf-8"?>
<!-- Generator: Adobe Illustrator 21.1.0, SVG Export Plug-In . SVG Version: 6.00 Build 0)  -->
<svg version="1.1" id="Layer_1" xmlns="http://www.w3.org/2000/svg" xmlns:xlink="http://www.w3.org/1999/xlink" x="0px" y="0px"
	 viewBox="0 0 364.6 100.1" style="enable-background:new 0 0 364.6 100.1;" xml:space="preserve">
<style type="text/css">
	.st0{fill:#F6AF06;}
	.st1{fill:#FEFEFE;}
</style>
<g>
	<g>
		<path class="st0" d="M239.4,72.4c-34.3,0-68.6,0-102.9,0c-1.7,0-3.4-0.1-5,0.2c-0.5,0.1-1,0-1.6,0c-0.4,0-0.8-0.1-0.9-0.6
			c0-0.5,0.3-0.7,0.7-0.9c1.2-0.4,2.3-1.1,3.4-1.8c3.6-2.3,5.5-5.9,7-9.7c0.7-1.7,0.6-3.7,0.6-5.6c0.1-5.8,0-11.6,0-17.4
			c0-3.8-1.1-7.3-3.3-10.3c-1.6-2.1-3.4-4.1-5.9-5.3c-0.6-0.3-1.1-0.9-1.7-1.3c-0.3-0.2-0.4-0.6-0.3-0.9c0.1-0.4,0.5-0.3,0.8-0.3
			c5.7,0.1,11.4-0.2,17.1,0.1c1.2,0.1,2.4-0.1,3.6-0.1c9.5,0,19,0,28.4,0c8.2,0,16.4-0.1,24.7,0c4.9,0.1,9.7-0.2,14.6,0
			c2.3,0.1,4.6-0.2,6.9-0.1c3,0.1,6,0,9.1,0c11.3,0.1,22.7-0.1,34,0c3.1,0,6.2,0.2,9.3,0.1c4-0.1,8,0.1,12-0.1
			c3.6-0.1,7.2,0.2,10.8,0.1c8.5-0.3,16.9,0,25.4-0.1c2,0,3.9-0.2,5.9,0c2.3,0.2,4.6-0.1,6.9-0.1c2.3,0,4.5,0.3,6.8,0
			c1.7-0.2,2.2,0.4,2.2,2.2c0,4.2-0.1,8.5,0,12.7c0,12.4,0.1,24.8,0.1,37.2c0,1.4-0.4,1.9-1.8,1.9c-15.4,0-30.7,0-46.1,0
			C279.9,72.5,259.6,72.5,239.4,72.4C239.4,72.4,239.4,72.4,239.4,72.4z"/>
		<path d="M56.9,33.9c-2.6-6.8-7.7-10.8-14.9-11.8c-6.9-0.9-13.8-0.7-20.7-0.6c-1.5,0-1.8,0.3-1.8,1.9c0,7,0,14,0,21c0,0,0,0,0,0
			c0,7.1,0,14.2,0,21.2c0,1.1,0.4,1.6,1.5,1.6c6.5,0.1,13,0.3,19.5-0.3c8-0.8,13.7-4.9,16.5-12.4C59.5,47.7,59.5,40.7,56.9,33.9z
			 M47,51.8c-1.9,3.9-5,6-9.4,6.3c-2.5,0.2-5,0.1-7.6,0.2c-0.7,0-0.8-0.3-0.8-0.9c0-4.3,0-8.6,0-13c0-4.2,0-8.5,0-12.7
			c0-0.9,0.2-1.1,1.1-1c2.7,0.1,5.4,0,8.1,0.3c4.9,0.6,7.9,3.5,9.3,8C49.1,43.3,49,47.6,47,51.8z"/>
		<path d="M77.9,68.2c-2.6,0-5-0.2-7.4-1.2c-4.1-1.7-6.5-4.8-7.5-9c-0.4-1.6-0.1-2,1.4-2.7c1.2-0.6,2.5-1,3.7-1.7
			c0.8-0.4,1.5-0.2,2.3-0.3c0.6,0,1,0.6,1.3,1.2c1.3,3.4,5.2,5.1,8.6,4c1.1-0.4,2-1,2.6-2c1.1-1.6,1-3-0.3-4.5
			c-1.3-1.5-3-2.5-4.8-3.3c-2.9-1.3-5.6-2.8-8.3-4.6c-4.9-3.4-6.1-7.9-4.9-13.9c0.9-4.9,5-8.3,10.3-9.1c3.8-0.6,7.5-0.5,11.1,1
			c2.7,1.1,4.7,2.9,5.9,5.6c0.4,0.8,0.2,1.6,0.4,2.4c0.1,0.4-0.3,0.4-0.5,0.6c-1.8,0.9-3.7,2-5.6,2.8c-0.7,0.3-1.7,0.5-2.4-0.6
			c-1.3-2.1-3.2-3.4-5.8-3c-1.1,0.2-2,0.6-2.7,1.4c-1.2,1.3-1.2,2.6-0.2,4c1.2,1.5,2.8,2.5,4.4,3.4c2.5,1.3,5.1,2.4,7.5,3.9
			c2.8,1.8,5.2,3.8,5.9,7.2c1.2,5.7,0.7,11-4,15.2C85.8,67.6,81.9,68.3,77.9,68.2z"/>
		<path d="M112.2,68.2c-2.8,0-5.7-0.3-8.4-1.7c-3.5-1.8-5.5-4.8-6.4-8.5c-0.4-1.6-0.1-1.9,1.3-2.6c1.3-0.6,2.6-1.1,3.8-1.7
			c0.8-0.4,1.5-0.2,2.3-0.2c0.4,0,0.9,0.3,1.1,0.9c1.4,3.4,4.1,4.9,7.7,4.5c1.4-0.2,2.5-0.8,3.4-1.9c1.3-1.7,1.3-3.4-0.1-5
			c-1.3-1.5-3-2.4-4.7-3.2c-2.9-1.4-5.7-2.8-8.3-4.7c-4.8-3.4-6-7.9-4.8-13.9c1-4.9,5-8.3,10.3-9.1c3.6-0.5,7.1-0.5,10.5,0.7
			c3.1,1.1,5.3,3.1,6.7,6.1c0.3,0.7,0,1.5,0.3,2.2c0.1,0.3-0.3,0.4-0.6,0.5c-1.8,0.9-3.6,1.9-5.5,2.7c-0.8,0.3-1.7,0.5-2.5-0.6
			c-1.3-2-3.1-3.3-5.7-2.9c-1.2,0.2-2.1,0.7-2.9,1.6c-1.1,1.3-1.1,2.5-0.1,3.8c1.2,1.6,2.8,2.6,4.5,3.5c2.5,1.3,5.1,2.4,7.5,3.9
			c2.7,1.7,5.1,3.8,5.9,7.1c1.5,6.9-0.2,13.5-6.3,16.8C118.4,67.9,115.4,68.3,112.2,68.2z"/>
		<path class="st1" d="M241.6,51.4c-2.8,0-5.6,0-8.4,0c-1.4,0-1.8-0.4-1.8-1.7c0-1.5,0-3,0-4.6c0-1.1,0.5-1.6,1.6-1.6
			c5.2,0,10.4,0,15.6,0c0.8,0,1.5,0.4,1.5,1.1c0.4,3.9,0.3,7.7-0.9,11.5c-2,6.2-6.3,9.9-12.5,11.5c-6.6,1.7-13.1,1.3-19.3-1.8
			c-5.5-2.8-9-7.4-10.7-13.2c-1.1-3.5-1.2-7.1-0.8-10.8c0.5-4.2,2-7.9,4.6-11.1c2.4-3.1,5.4-5.3,8.9-6.8c3.7-1.5,7.6-2.2,11.5-1.9
			c6,0.3,11.2,2.6,15.2,7.2c0.5,0.6,0.4,1.6-0.4,2.1c-1.5,1.1-3,2.3-4.5,3.4c-0.6,0.4-1,0.5-1.5-0.1c-3.2-3.6-7.5-4.7-12-4.2
			c-6.6,0.6-11.7,5.2-12.7,11.9c-0.8,5.4,0.3,10.2,4.3,14.1c2.1,2,4.6,3.1,7.5,3.5c3.1,0.4,6.2,0.3,9.2-0.9c3.2-1.3,5.2-3.5,5.5-7.1
			C241.5,51.6,241.5,51.5,241.6,51.4z"/>
		<path class="st1" d="M294,45.1c0,6.8,0,13.6,0,20.4c0,1.5-0.4,1.9-1.9,1.9c-1.7,0-3.4,0-5,0c-1.3,0-1.7-0.4-1.7-1.8c0-6,0-12,0-18
			c0-0.9-0.3-1.1-1.1-1.1c-5.7,0-11.4,0-17.2,0c-0.9,0-1.2,0.2-1.2,1.2c0,6,0,11.9,0,17.9c0,1.5-0.4,1.8-1.8,1.9c-1.7,0-3.4,0-5.2,0
			c-1.2,0-1.7-0.5-1.7-1.6c0-13.9,0-27.8,0-41.6c0-1.1,0.5-1.6,1.6-1.6c1.8,0,3.7,0,5.5,0c1.1,0,1.6,0.5,1.6,1.6c0,4.4,0,8.8,0,13.2
			c0,0.9,0.2,1.1,1.1,1c5.8,0,11.5,0,17.3,0c0.9,0,1.1-0.2,1.1-1.1c-0.1-4.3,0-8.6,0-13c0-1.4,0.4-1.8,1.7-1.8c1.7,0,3.4,0,5.2,0
			c1.3,0,1.7,0.4,1.7,1.8C294,31.3,294,38.2,294,45.1z"/>
		<path class="st1" d="M166.8,68.4c-3.4-0.1-6.3-0.5-8.9-2c-3.4-1.9-5.3-4.9-6.2-8.6c-0.2-0.7,0.3-0.9,0.8-1.1
			c1.5-0.7,2.9-1.3,4.4-2c1.3-0.6,2-0.3,2.6,1c0.5,1.1,1.1,2.1,2.1,2.9c2.4,1.6,5,2,7.6,0.9c3.9-1.6,4.2-6.1,0.7-8.6
			c-1.8-1.3-3.9-2.1-5.8-3.1c-2.9-1.6-5.9-3-8.2-5.4c-1.7-1.8-2.6-3.9-2.9-6.4c-0.3-2.6,0.1-5.1,1.2-7.4c1.7-3.3,4.5-5.3,7.9-6.2
			c3.8-1,7.7-0.8,11.4,0.7c3.1,1.2,5.4,3.3,6.4,6.6c0.2,0.5,0.2,0.7-0.3,1c-1.9,1-3.8,2-5.6,2.9c-0.4,0.2-0.7,0.4-1.1-0.3
			c-1-1.6-2.3-2.9-4.2-3.4c-2.5-0.6-5.9,0.5-6.4,2.9c-0.4,1.8,0.4,3.8,2.2,5.1c2.1,1.5,4.5,2.5,6.8,3.6c2.6,1.3,5.2,2.7,7.2,5
			c2.5,2.8,3.1,6.1,2.7,9.7c-0.3,2.3-0.9,4.5-2.3,6.3c-2.4,3.3-5.7,5.2-9.8,5.6C168.2,68.3,167.3,68.5,166.8,68.4z"/>
		<path class="st1" d="M310.6,48.5c0-5.6,0-11.3,0-16.9c0-1-0.3-1.2-1.2-1.2c-2.8,0.1-5.6,0-8.4,0c-1.3,0-1.7-0.4-1.7-1.7
			c0-1.6,0-3.1,0-4.7c0-1,0.5-1.5,1.5-1.5c9.5,0,19,0,28.4,0c1,0,1.5,0.6,1.5,1.6c0,1.6,0,3.2,0,4.8c0,1.1-0.6,1.6-1.6,1.6
			c-2.8,0-5.7,0-8.5,0c-1,0-1.2,0.3-1.2,1.2c0,11.3,0,22.6,0,33.8c0,1.6-0.3,2-1.9,2c-1.7,0-3.4,0-5.2,0c-1.4,0-1.8-0.4-1.8-1.8
			C310.6,60,310.6,54.3,310.6,48.5z"/>
		<path class="st1" d="M197.8,45c0,6.9,0,13.7,0,20.6c0,1.4-0.4,1.8-1.8,1.8c-1.8,0-3.7,0-5.5,0c-1,0-1.5-0.5-1.5-1.5
			c0-13.9,0-27.9,0-41.8c0-1,0.5-1.5,1.5-1.5c1.9,0,3.8,0,5.8,0c1.2,0,1.6,0.5,1.6,1.7C197.8,31.2,197.8,38.1,197.8,45z"/>
	</g>
</g>
</svg>
