<?xml version="1.0" encoding="UTF-8" standalone="no"?>
<!DOCTYPE svg PUBLIC "-//W3C//DTD SVG 1.1//EN"
 "http://www.w3.org/Graphics/SVG/1.1/DTD/svg11.dtd">
<!-- Generated by graphviz version 2.40.1 (20161225.0304)
 -->
<!-- Title: dependencies Pages: 1 -->
<svg width="798pt" height="284pt"
 viewBox="0.00 0.00 798.00 284.00" xmlns="http://www.w3.org/2000/svg" xmlns:xlink="http://www.w3.org/1999/xlink">
<g id="graph0" class="graph" transform="scale(1 1) rotate(0) translate(4 280)">
<title>dependencies</title>
<polygon fill="#ffffff" stroke="transparent" points="-4,4 -4,-280 794,-280 794,4 -4,4"/>
<text text-anchor="start" x="374.0091" y="-42.4" font-family="sans-serif" font-weight="bold" font-size="14.00" fill="#000000">Legend</text>
<polygon fill="#ffffb3" stroke="transparent" points="161,-10 161,-30 181,-30 181,-10 161,-10"/>
<text text-anchor="start" x="184.629" y="-15.4" font-family="sans-serif" font-size="14.00" fill="#000000"> &#160;Declarations</text>
<polygon fill="#8dd3c7" stroke="transparent" points="274,-10 274,-30 294,-30 294,-10 274,-10"/>
<text text-anchor="start" x="297.7251" y="-15.4" font-family="sans-serif" font-size="14.00" fill="#000000"> &#160;Module</text>
<polygon fill="#80b1d3" stroke="transparent" points="360,-10 360,-30 380,-30 380,-10 360,-10"/>
<text text-anchor="start" x="383.7812" y="-15.4" font-family="sans-serif" font-size="14.00" fill="#000000"> &#160;Bootstrap</text>
<polygon fill="#fdb462" stroke="transparent" points="457,-10 457,-30 477,-30 477,-10 457,-10"/>
<text text-anchor="start" x="480.6732" y="-15.4" font-family="sans-serif" font-size="14.00" fill="#000000"> &#160;Providers</text>
<polygon fill="#fb8072" stroke="transparent" points="553,-10 553,-30 573,-30 573,-10 553,-10"/>
<text text-anchor="start" x="576.7258" y="-15.4" font-family="sans-serif" font-size="14.00" fill="#000000"> &#160;Exports</text>
<g id="clust1" class="cluster">
<title>cluster_NavbarModule</title>
<polygon fill="none" stroke="#000000" stroke-dasharray="1,5" points="8,-70 8,-268 782,-268 782,-70 8,-70"/>
</g>
<g id="clust2" class="cluster">
<title>cluster_NavbarModule_declarations</title>
<polygon fill="none" stroke="#000000" points="636,-78 636,-130 774,-130 774,-78 636,-78"/>
</g>
<g id="clust4" class="cluster">
<title>cluster_NavbarModule_imports</title>
<polygon fill="none" stroke="#000000" points="16,-78 16,-130 628,-130 628,-78 16,-78"/>
</g>
<g id="clust5" class="cluster">
<title>cluster_NavbarModule_exports</title>
<polygon fill="none" stroke="#000000" points="347,-208 347,-260 489,-260 489,-208 347,-208"/>
</g>
<!-- NavbarComponent -->
<g id="node1" class="node">
<title>NavbarComponent</title>
<polygon fill="#ffffb3" stroke="#000000" points="766.0297,-122 643.9703,-122 643.9703,-86 766.0297,-86 766.0297,-122"/>
<text text-anchor="middle" x="705" y="-99.8" font-family="Times,serif" font-size="14.00" fill="#000000">NavbarComponent</text>
</g>
<!-- NavbarModule -->
<g id="node2" class="node">
<title>NavbarModule</title>
<polygon fill="#8dd3c7" stroke="#000000" points="468.2465,-187 465.2465,-191 444.2465,-191 441.2465,-187 367.7535,-187 367.7535,-151 468.2465,-151 468.2465,-187"/>
<text text-anchor="middle" x="418" y="-164.8" font-family="Times,serif" font-size="14.00" fill="#000000">NavbarModule</text>
</g>
<!-- NavbarComponent&#45;&gt;NavbarModule -->
<g id="edge1" class="edge">
<title>NavbarComponent&#45;&gt;NavbarModule</title>
<path fill="none" stroke="#000000" d="M705,-122.1061C705,-141.3391 705,-169 705,-169 705,-169 478.32,-169 478.32,-169"/>
<polygon fill="#000000" stroke="#000000" points="478.32,-165.5001 468.32,-169 478.32,-172.5001 478.32,-165.5001"/>
</g>
<!-- NavbarComponent  -->
<g id="node6" class="node">
<title>NavbarComponent </title>
<polygon fill="#fb8072" stroke="#000000" points="481.0288,-252 354.9712,-252 354.9712,-216 481.0288,-216 481.0288,-252"/>
<text text-anchor="middle" x="418" y="-229.8" font-family="Times,serif" font-size="14.00" fill="#000000">NavbarComponent </text>
</g>
<!-- NavbarModule&#45;&gt;NavbarComponent  -->
<g id="edge5" class="edge">
<title>NavbarModule&#45;&gt;NavbarComponent </title>
<path fill="none" stroke="#000000" stroke-dasharray="5,2" d="M418,-187.1061C418,-187.1061 418,-205.991 418,-205.991"/>
<polygon fill="#000000" stroke="#000000" points="414.5001,-205.9909 418,-215.991 421.5001,-205.991 414.5001,-205.9909"/>
</g>
<!-- NavbarHorizontalStyle1Module -->
<g id="node3" class="node">
<title>NavbarHorizontalStyle1Module</title>
<polygon fill="#8dd3c7" stroke="#000000" points="620.3932,-122 617.3932,-126 596.3932,-126 593.3932,-122 423.6068,-122 423.6068,-86 620.3932,-86 620.3932,-122"/>
<text text-anchor="middle" x="522" y="-99.8" font-family="Times,serif" font-size="14.00" fill="#000000">NavbarHorizontalStyle1Module</text>
</g>
<!-- NavbarHorizontalStyle1Module&#45;&gt;NavbarModule -->
<g id="edge2" class="edge">
<title>NavbarHorizontalStyle1Module&#45;&gt;NavbarModule</title>
<path fill="none" stroke="#000000" d="M446.0884,-122.1061C446.0884,-122.1061 446.0884,-140.991 446.0884,-140.991"/>
<polygon fill="#000000" stroke="#000000" points="442.5884,-140.9909 446.0884,-150.991 449.5884,-140.991 442.5884,-140.9909"/>
</g>
<!-- NavbarVerticalStyle1Module -->
<g id="node4" class="node">
<title>NavbarVerticalStyle1Module</title>
<polygon fill="#8dd3c7" stroke="#000000" points="405.6078,-122 402.6078,-126 381.6078,-126 378.6078,-122 224.3922,-122 224.3922,-86 405.6078,-86 405.6078,-122"/>
<text text-anchor="middle" x="315" y="-99.8" font-family="Times,serif" font-size="14.00" fill="#000000">NavbarVerticalStyle1Module</text>
</g>
<!-- NavbarVerticalStyle1Module&#45;&gt;NavbarModule -->
<g id="edge3" class="edge">
<title>NavbarVerticalStyle1Module&#45;&gt;NavbarModule</title>
<path fill="none" stroke="#000000" d="M386.7153,-122.1061C386.7153,-122.1061 386.7153,-140.991 386.7153,-140.991"/>
<polygon fill="#000000" stroke="#000000" points="383.2154,-140.9909 386.7153,-150.991 390.2154,-140.991 383.2154,-140.9909"/>
</g>
<!-- NavbarVerticalStyle2Module -->
<g id="node5" class="node">
<title>NavbarVerticalStyle2Module</title>
<polygon fill="#8dd3c7" stroke="#000000" points="205.6078,-122 202.6078,-126 181.6078,-126 178.6078,-122 24.3922,-122 24.3922,-86 205.6078,-86 205.6078,-122"/>
<text text-anchor="middle" x="115" y="-99.8" font-family="Times,serif" font-size="14.00" fill="#000000">NavbarVerticalStyle2Module</text>
</g>
<!-- NavbarVerticalStyle2Module&#45;&gt;NavbarModule -->
<g id="edge4" class="edge">
<title>NavbarVerticalStyle2Module&#45;&gt;NavbarModule</title>
<path fill="none" stroke="#000000" d="M115,-122.1061C115,-141.3391 115,-169 115,-169 115,-169 357.6256,-169 357.6256,-169"/>
<polygon fill="#000000" stroke="#000000" points="357.6256,-172.5001 367.6256,-169 357.6255,-165.5001 357.6256,-172.5001"/>
</g>
</g>
</svg>
