<?xml version="1.0" encoding="UTF-8" standalone="no"?>
<!DOCTYPE svg PUBLIC "-//W3C//DTD SVG 1.1//EN"
 "http://www.w3.org/Graphics/SVG/1.1/DTD/svg11.dtd">
<!-- Generated by graphviz version 2.40.1 (20161225.0304)
 -->
<!-- Title: dependencies Pages: 1 -->
<svg width="869pt" height="284pt"
 viewBox="0.00 0.00 869.00 284.00" xmlns="http://www.w3.org/2000/svg" xmlns:xlink="http://www.w3.org/1999/xlink">
<g id="graph0" class="graph" transform="scale(1 1) rotate(0) translate(4 280)">
<title>dependencies</title>
<polygon fill="#ffffff" stroke="transparent" points="-4,4 -4,-280 865,-280 865,4 -4,4"/>
<text text-anchor="start" x="409.5091" y="-42.4" font-family="sans-serif" font-weight="bold" font-size="14.00" fill="#000000">Legend</text>
<polygon fill="#ffffb3" stroke="transparent" points="196.5,-10 196.5,-30 216.5,-30 216.5,-10 196.5,-10"/>
<text text-anchor="start" x="220.129" y="-15.4" font-family="sans-serif" font-size="14.00" fill="#000000"> &#160;Declarations</text>
<polygon fill="#8dd3c7" stroke="transparent" points="309.5,-10 309.5,-30 329.5,-30 329.5,-10 309.5,-10"/>
<text text-anchor="start" x="333.2251" y="-15.4" font-family="sans-serif" font-size="14.00" fill="#000000"> &#160;Module</text>
<polygon fill="#80b1d3" stroke="transparent" points="395.5,-10 395.5,-30 415.5,-30 415.5,-10 395.5,-10"/>
<text text-anchor="start" x="419.2812" y="-15.4" font-family="sans-serif" font-size="14.00" fill="#000000"> &#160;Bootstrap</text>
<polygon fill="#fdb462" stroke="transparent" points="492.5,-10 492.5,-30 512.5,-30 512.5,-10 492.5,-10"/>
<text text-anchor="start" x="516.1732" y="-15.4" font-family="sans-serif" font-size="14.00" fill="#000000"> &#160;Providers</text>
<polygon fill="#fb8072" stroke="transparent" points="588.5,-10 588.5,-30 608.5,-30 608.5,-10 588.5,-10"/>
<text text-anchor="start" x="612.2258" y="-15.4" font-family="sans-serif" font-size="14.00" fill="#000000"> &#160;Exports</text>
<g id="clust1" class="cluster">
<title>cluster_HorizontalLayout1Module</title>
<polygon fill="none" stroke="#000000" stroke-dasharray="1,5" points="8,-70 8,-268 853,-268 853,-70 8,-70"/>
</g>
<g id="clust2" class="cluster">
<title>cluster_HorizontalLayout1Module_declarations</title>
<polygon fill="none" stroke="#000000" points="641,-78 641,-130 845,-130 845,-78 641,-78"/>
</g>
<g id="clust4" class="cluster">
<title>cluster_HorizontalLayout1Module_imports</title>
<polygon fill="none" stroke="#000000" points="16,-78 16,-130 633,-130 633,-78 16,-78"/>
</g>
<g id="clust5" class="cluster">
<title>cluster_HorizontalLayout1Module_exports</title>
<polygon fill="none" stroke="#000000" points="293,-208 293,-260 501,-260 501,-208 293,-208"/>
</g>
<!-- HorizontalLayout1Component -->
<g id="node1" class="node">
<title>HorizontalLayout1Component</title>
<polygon fill="#ffffb3" stroke="#000000" points="836.8585,-122 649.1415,-122 649.1415,-86 836.8585,-86 836.8585,-122"/>
<text text-anchor="middle" x="743" y="-99.8" font-family="Times,serif" font-size="14.00" fill="#000000">HorizontalLayout1Component</text>
</g>
<!-- HorizontalLayout1Module -->
<g id="node2" class="node">
<title>HorizontalLayout1Module</title>
<polygon fill="#8dd3c7" stroke="#000000" points="480.0758,-187 477.0758,-191 456.0758,-191 453.0758,-187 313.9242,-187 313.9242,-151 480.0758,-151 480.0758,-187"/>
<text text-anchor="middle" x="397" y="-164.8" font-family="Times,serif" font-size="14.00" fill="#000000">HorizontalLayout1Module</text>
</g>
<!-- HorizontalLayout1Component&#45;&gt;HorizontalLayout1Module -->
<g id="edge1" class="edge">
<title>HorizontalLayout1Component&#45;&gt;HorizontalLayout1Module</title>
<path fill="none" stroke="#000000" d="M743,-122.2843C743,-143.3211 743,-175 743,-175 743,-175 490.3159,-175 490.3159,-175"/>
<polygon fill="#000000" stroke="#000000" points="490.316,-171.5001 480.3159,-175 490.3159,-178.5001 490.316,-171.5001"/>
</g>
<!-- HorizontalLayout1Component  -->
<g id="node8" class="node">
<title>HorizontalLayout1Component </title>
<polygon fill="#fb8072" stroke="#000000" points="492.8587,-252 301.1413,-252 301.1413,-216 492.8587,-216 492.8587,-252"/>
<text text-anchor="middle" x="397" y="-229.8" font-family="Times,serif" font-size="14.00" fill="#000000">HorizontalLayout1Component </text>
</g>
<!-- HorizontalLayout1Module&#45;&gt;HorizontalLayout1Component  -->
<g id="edge7" class="edge">
<title>HorizontalLayout1Module&#45;&gt;HorizontalLayout1Component </title>
<path fill="none" stroke="#000000" stroke-dasharray="5,2" d="M397,-187.1061C397,-187.1061 397,-205.991 397,-205.991"/>
<polygon fill="#000000" stroke="#000000" points="393.5001,-205.9909 397,-215.991 400.5001,-205.991 393.5001,-205.9909"/>
</g>
<!-- ContentModule -->
<g id="node3" class="node">
<title>ContentModule</title>
<polygon fill="#8dd3c7" stroke="#000000" points="624.8823,-122 621.8823,-126 600.8823,-126 597.8823,-122 521.1177,-122 521.1177,-86 624.8823,-86 624.8823,-122"/>
<text text-anchor="middle" x="573" y="-99.8" font-family="Times,serif" font-size="14.00" fill="#000000">ContentModule</text>
</g>
<!-- ContentModule&#45;&gt;HorizontalLayout1Module -->
<g id="edge2" class="edge">
<title>ContentModule&#45;&gt;HorizontalLayout1Module</title>
<path fill="none" stroke="#000000" d="M573,-122.0225C573,-139.3734 573,-163 573,-163 573,-163 490.1038,-163 490.1038,-163"/>
<polygon fill="#000000" stroke="#000000" points="490.1038,-159.5001 480.1038,-163 490.1038,-166.5001 490.1038,-159.5001"/>
</g>
<!-- FooterModule -->
<g id="node4" class="node">
<title>FooterModule</title>
<polygon fill="#8dd3c7" stroke="#000000" points="503.0983,-122 500.0983,-126 479.0983,-126 476.0983,-122 406.9017,-122 406.9017,-86 503.0983,-86 503.0983,-122"/>
<text text-anchor="middle" x="455" y="-99.8" font-family="Times,serif" font-size="14.00" fill="#000000">FooterModule</text>
</g>
<!-- FooterModule&#45;&gt;HorizontalLayout1Module -->
<g id="edge3" class="edge">
<title>FooterModule&#45;&gt;HorizontalLayout1Module</title>
<path fill="none" stroke="#000000" d="M443.4944,-122.1061C443.4944,-122.1061 443.4944,-140.991 443.4944,-140.991"/>
<polygon fill="#000000" stroke="#000000" points="439.9945,-140.9909 443.4944,-150.991 446.9945,-140.991 439.9945,-140.9909"/>
</g>
<!-- NavbarModule -->
<g id="node5" class="node">
<title>NavbarModule</title>
<polygon fill="#8dd3c7" stroke="#000000" points="389.2465,-122 386.2465,-126 365.2465,-126 362.2465,-122 288.7535,-122 288.7535,-86 389.2465,-86 389.2465,-122"/>
<text text-anchor="middle" x="339" y="-99.8" font-family="Times,serif" font-size="14.00" fill="#000000">NavbarModule</text>
</g>
<!-- NavbarModule&#45;&gt;HorizontalLayout1Module -->
<g id="edge4" class="edge">
<title>NavbarModule&#45;&gt;HorizontalLayout1Module</title>
<path fill="none" stroke="#000000" d="M351.6676,-122.1061C351.6676,-122.1061 351.6676,-140.991 351.6676,-140.991"/>
<polygon fill="#000000" stroke="#000000" points="348.1677,-140.9909 351.6676,-150.991 355.1677,-140.991 348.1677,-140.9909"/>
</g>
<!-- QuickPanelModule -->
<g id="node6" class="node">
<title>QuickPanelModule</title>
<polygon fill="#8dd3c7" stroke="#000000" points="270.3641,-122 267.3641,-126 246.3641,-126 243.3641,-122 145.6359,-122 145.6359,-86 270.3641,-86 270.3641,-122"/>
<text text-anchor="middle" x="208" y="-99.8" font-family="Times,serif" font-size="14.00" fill="#000000">QuickPanelModule</text>
</g>
<!-- QuickPanelModule&#45;&gt;HorizontalLayout1Module -->
<g id="edge5" class="edge">
<title>QuickPanelModule&#45;&gt;HorizontalLayout1Module</title>
<path fill="none" stroke="#000000" d="M208,-122.0225C208,-139.3734 208,-163 208,-163 208,-163 303.8268,-163 303.8268,-163"/>
<polygon fill="#000000" stroke="#000000" points="303.8268,-166.5001 313.8268,-163 303.8268,-159.5001 303.8268,-166.5001"/>
</g>
<!-- ToolbarModule -->
<g id="node7" class="node">
<title>ToolbarModule</title>
<polygon fill="#8dd3c7" stroke="#000000" points="127.8683,-122 124.8683,-126 103.8683,-126 100.8683,-122 24.1317,-122 24.1317,-86 127.8683,-86 127.8683,-122"/>
<text text-anchor="middle" x="76" y="-99.8" font-family="Times,serif" font-size="14.00" fill="#000000">ToolbarModule</text>
</g>
<!-- ToolbarModule&#45;&gt;HorizontalLayout1Module -->
<g id="edge6" class="edge">
<title>ToolbarModule&#45;&gt;HorizontalLayout1Module</title>
<path fill="none" stroke="#000000" d="M76,-122.2843C76,-143.3211 76,-175 76,-175 76,-175 303.9171,-175 303.9171,-175"/>
<polygon fill="#000000" stroke="#000000" points="303.9171,-178.5001 313.9171,-175 303.917,-171.5001 303.9171,-178.5001"/>
</g>
</g>
</svg>
