<?xml version="1.0" encoding="utf-8"?>
<!-- Generator: Adobe Illustrator 21.1.0, SVG Export Plug-In . SVG Version: 6.00 Build 0)  -->
<svg version="1.1" id="Layer_1" xmlns="http://www.w3.org/2000/svg" xmlns:xlink="http://www.w3.org/1999/xlink" x="0px" y="0px"
	 viewBox="0 0 200.6 200" style="enable-background:new 0 0 200.6 200;" xml:space="preserve">
<style type="text/css">
	.st0{fill:#FFFFFF;}
</style>
<g>
	<g>
		<path class="st0" d="M96.3,182.4c15.6,0,31.1,0.1,46.7,0c12.6-0.1,23.3-10.3,23.5-22.7c0.2-15.9,0.1-31.9,0-47.9
			c0-3.4-2.3-6.4-5.5-7.6c-5.5-2-11.1,2-11.1,8c0,15.2,0,30.5,0,45.7c0,5-3,7.9-7.9,7.9c-30.6,0-61.2,0-91.7,0c-5.1,0-8-2.9-8-8
			c0-12.9,0-25.7,0-38.6c0-17.7,0-35.4,0-53.1c0-2.5,0.8-4.7,2.7-6.3c1.5-1.2,3.3-1.6,5.3-1.6c16.4,0,32.8,0,49.2,0
			c3,0,5.5-1,7.3-3.5c1.9-2.7,2.1-5.6,0.6-8.5c-1.5-3-4.1-4.6-7.5-4.6c-16.5,0-33,0-49.5,0c-14.3,0-24.6,10.3-24.6,24.6
			c0,30.5,0,61,0,91.6c0,14.3,10.3,24.6,24.7,24.6C65.7,182.5,81,182.4,96.3,182.4z M166.5,53.5c0,0.9,0,1.4,0,1.9
			c0,6.3,0,12.7,0,19c0,5,3.6,8.7,8.3,8.7c4.7,0,8.3-3.7,8.3-8.7c0-13.7,0-27.4,0-41.1c0-4.6-3.6-8.2-8.1-8.2c-13.7,0-27.4,0-41.1,0
			c-5,0-8.7,3.5-8.8,8.2c0,4.8,3.7,8.4,8.7,8.4c6.3,0,12.7,0,19,0c0.5,0,1,0,2,0.1c-0.9,0.8-1.4,1.2-1.9,1.6
			c-19.2,19.2-38.5,38.5-57.7,57.7c-0.4,0.4-0.9,0.8-1.3,1.3c-4.1,4.7-1.9,12,4.2,13.5c3.3,0.8,6-0.3,8.4-2.7
			c19.4-19.4,38.8-38.8,58.2-58.2C165.3,54.6,165.8,54.2,166.5,53.5z"/>
		<path d="M96.3,182.4c-15.3,0-30.6,0-45.9,0c-14.3,0-24.7-10.3-24.7-24.6c0-30.5,0-61,0-91.6c0-14.3,10.3-24.6,24.6-24.6
			c16.5,0,33,0,49.5,0c3.4,0,6,1.6,7.5,4.6c1.5,2.9,1.2,5.8-0.6,8.5c-1.7,2.5-4.2,3.5-7.3,3.5c-16.4,0-32.8,0-49.2,0
			c-1.9,0-3.7,0.4-5.3,1.6c-2,1.6-2.7,3.7-2.7,6.3c0,17.7,0,35.4,0,53.1c0,12.9,0,25.7,0,38.6c0,5.1,2.9,8,8,8c30.6,0,61.2,0,91.7,0
			c5,0,7.9-3,7.9-7.9c0-15.2,0-30.5,0-45.7c0-6,5.6-10,11.1-8c3.2,1.2,5.5,4.1,5.5,7.6c0,16,0.2,31.9,0,47.9
			c-0.2,12.4-10.9,22.7-23.5,22.7C127.4,182.5,111.9,182.4,96.3,182.4z"/>
		<path d="M166.5,53.5c-0.7,0.7-1.2,1.1-1.7,1.6c-19.4,19.4-38.8,38.8-58.2,58.2c-2.4,2.4-5,3.5-8.4,2.7c-6.1-1.5-8.4-8.8-4.2-13.5
			c0.4-0.5,0.8-0.9,1.3-1.3c19.2-19.2,38.5-38.5,57.7-57.7c0.5-0.5,1-0.9,1.9-1.6c-1-0.1-1.5-0.1-2-0.1c-6.3,0-12.7,0-19,0
			c-5.1,0-8.8-3.6-8.7-8.4c0-4.7,3.7-8.2,8.8-8.2c13.7,0,27.4,0,41.1,0c4.6,0,8.1,3.6,8.1,8.2c0,13.7,0,27.4,0,41.1
			c0,5-3.5,8.7-8.3,8.7c-4.7,0-8.3-3.7-8.3-8.7c0-6.3,0-12.7,0-19C166.5,54.9,166.5,54.4,166.5,53.5z"/>
	</g>
</g>
</svg>
