<?xml version="1.0" encoding="utf-8"?>
<!-- Generator: Adobe Illustrator 21.1.0, SVG Export Plug-In . SVG Version: 6.00 Build 0)  -->
<svg version="1.1" id="Layer_1" xmlns="http://www.w3.org/2000/svg" xmlns:xlink="http://www.w3.org/1999/xlink" x="0px" y="0px"
	 viewBox="0 0 200.6 200" style="enable-background:new 0 0 200.6 200;" xml:space="preserve">
<g>
	<g>
		<path d="M101.2,125.4c-12.5-12.5-25.3-25.3-38.2-38.2c0.6,0,1.2-0.1,1.8-0.1c5.1,0,10.1-0.1,15.2,0.1c1.8,0.1,2.2-0.6,2.5-2.2
			c1.7-9.8,5-19,10.3-27.4c8.3-13.3,20.3-22.1,34.6-28c7.9-3.3,18.2-6.1,25.4-7c0.2,0.2,0.4,0.4,0.6,0.5c-0.5,0.3-1.2,0.5-1.6,0.9
			c-8.5,8-16.3,16.6-22,26.9c-6.3,11.1-9,23.1-9.3,35.7c0,0.1,0.1,0.2,0.2,0.5c6.4,0,12.9,0,19.1,0
			C126.7,99.8,114,112.6,101.2,125.4z"/>
		<path d="M23.6,113.1c4.4,0,8.5,0,12.9,0c0,17.2,0,34.4,0,51.7c43.3,0,86.4,0,129.6,0c0-17.2,0-34.3,0-51.6c4.4,0,8.6,0,13,0
			c0,0.7,0,1.3,0,1.9c0,16.3,0,32.6,0,48.9c0,8.4-5.4,13.9-13.8,13.9c-42.7,0-85.4,0-128.1,0c-8.2,0-13.7-5.5-13.7-13.8
			c0-16.3,0-32.6,0-48.9C23.6,114.5,23.6,113.9,23.6,113.1z"/>
	</g>
</g>
</svg>
