<?xml version="1.0" encoding="utf-8"?>
<!-- Generator: Adobe Illustrator 21.1.0, SVG Export Plug-In . SVG Version: 6.00 Build 0)  -->
<svg version="1.1" id="Layer_1" xmlns="http://www.w3.org/2000/svg" xmlns:xlink="http://www.w3.org/1999/xlink" x="0px" y="0px"
	 viewBox="0 0 200.6 200" style="enable-background:new 0 0 200.6 200;" xml:space="preserve">
<style type="text/css">
	.st0{fill:#FFFFFF;}
</style>
<g>
	<g>
		<path class="st0" d="M75.6,128.5c0,16.5,0,33,0,49.5c0,2.3,0.4,2.7,2.7,2.7c30.9,0,61.9,0,92.8,0c5.7,0,8.7-2.9,8.7-8.6
			c0-31,0-62,0-92.9c0-2.2-0.4-2.6-2.6-2.6c-33,0-66,0-98.9,0c-2.1,0-2.6,0.4-2.6,2.5C75.6,95.6,75.6,112.1,75.6,128.5z M99.6,60.6
			c25.9,0,51.8,0,77.7,0c2,0,2.5-0.5,2.5-2.5c0-9.7,0-19.3,0-29c0-5.6-3-8.6-8.5-8.6c-47.7,0-95.3,0-143,0c-5.8,0-8.7,2.9-8.7,8.7
			c0,9.5,0,19,0,28.4c0,2.6,0.3,2.9,2.9,2.9C48.1,60.6,73.9,60.6,99.6,60.6z M59.6,128.7c0-16.5,0-33,0-49.6c0-2.1-0.5-2.5-2.5-2.5
			c-11.7,0-23.4,0-35.1,0c-2,0-2.5,0.5-2.5,2.5c0,31.1,0,62.2,0,93.2c0,5.4,3,8.4,8.5,8.4c9.7,0,19.3,0,29,0c2.2,0,2.6-0.4,2.6-2.7
			C59.6,161.6,59.6,145.2,59.6,128.7z"/>
		<path d="M75.6,128.5c0-16.5,0-32.9,0-49.4c0-2.1,0.4-2.5,2.6-2.5c33,0,66,0,98.9,0c2.2,0,2.6,0.4,2.6,2.6c0,31,0,62,0,92.9
			c0,5.7-3,8.6-8.7,8.6c-30.9,0-61.9,0-92.8,0c-2.3,0-2.7-0.4-2.7-2.7C75.6,161.6,75.6,145,75.6,128.5z"/>
		<path d="M99.6,60.6c-25.7,0-51.5,0-77.2,0c-2.6,0-2.9-0.3-2.9-2.9c0-9.5,0-19,0-28.4c0-5.8,2.9-8.7,8.7-8.7c47.7,0,95.3,0,143,0
			c5.6,0,8.5,3,8.5,8.6c0,9.7,0,19.3,0,29c0,2-0.5,2.5-2.5,2.5C151.4,60.6,125.5,60.6,99.6,60.6z"/>
		<path d="M59.6,128.7c0,16.5,0,32.9,0,49.4c0,2.2-0.4,2.7-2.6,2.7c-9.7,0-19.3,0-29,0c-5.4,0-8.5-3-8.5-8.4c0-31.1,0-62.2,0-93.2
			c0-2.1,0.5-2.5,2.5-2.5c11.7,0,23.4,0,35.1,0c2,0,2.5,0.5,2.5,2.5C59.6,95.6,59.6,112.2,59.6,128.7z"/>
	</g>
</g>
</svg>
