<?xml version="1.0" encoding="UTF-8" standalone="no"?>
<!DOCTYPE svg PUBLIC "-//W3C//DTD SVG 1.1//EN"
 "http://www.w3.org/Graphics/SVG/1.1/DTD/svg11.dtd">
<!-- Generated by graphviz version 2.40.1 (20161225.0304)
 -->
<!-- Title: dependencies Pages: 1 -->
<svg width="1333pt" height="284pt"
 viewBox="0.00 0.00 1333.00 284.00" xmlns="http://www.w3.org/2000/svg" xmlns:xlink="http://www.w3.org/1999/xlink">
<g id="graph0" class="graph" transform="scale(1 1) rotate(0) translate(4 280)">
<title>dependencies</title>
<polygon fill="#ffffff" stroke="transparent" points="-4,4 -4,-280 1329,-280 1329,4 -4,4"/>
<text text-anchor="start" x="641.5091" y="-42.4" font-family="sans-serif" font-weight="bold" font-size="14.00" fill="#000000">Legend</text>
<polygon fill="#ffffb3" stroke="transparent" points="428.5,-10 428.5,-30 448.5,-30 448.5,-10 428.5,-10"/>
<text text-anchor="start" x="452.129" y="-15.4" font-family="sans-serif" font-size="14.00" fill="#000000"> &#160;Declarations</text>
<polygon fill="#8dd3c7" stroke="transparent" points="541.5,-10 541.5,-30 561.5,-30 561.5,-10 541.5,-10"/>
<text text-anchor="start" x="565.2251" y="-15.4" font-family="sans-serif" font-size="14.00" fill="#000000"> &#160;Module</text>
<polygon fill="#80b1d3" stroke="transparent" points="627.5,-10 627.5,-30 647.5,-30 647.5,-10 627.5,-10"/>
<text text-anchor="start" x="651.2812" y="-15.4" font-family="sans-serif" font-size="14.00" fill="#000000"> &#160;Bootstrap</text>
<polygon fill="#fdb462" stroke="transparent" points="724.5,-10 724.5,-30 744.5,-30 744.5,-10 724.5,-10"/>
<text text-anchor="start" x="748.1732" y="-15.4" font-family="sans-serif" font-size="14.00" fill="#000000"> &#160;Providers</text>
<polygon fill="#fb8072" stroke="transparent" points="820.5,-10 820.5,-30 840.5,-30 840.5,-10 820.5,-10"/>
<text text-anchor="start" x="844.2258" y="-15.4" font-family="sans-serif" font-size="14.00" fill="#000000"> &#160;Exports</text>
<g id="clust1" class="cluster">
<title>cluster_BaseLayoutModule</title>
<polygon fill="none" stroke="#000000" stroke-dasharray="1,5" points="8,-70 8,-268 1317,-268 1317,-70 8,-70"/>
</g>
<g id="clust2" class="cluster">
<title>cluster_BaseLayoutModule_declarations</title>
<polygon fill="none" stroke="#000000" points="1000,-78 1000,-130 1309,-130 1309,-78 1000,-78"/>
</g>
<g id="clust5" class="cluster">
<title>cluster_BaseLayoutModule_imports</title>
<polygon fill="none" stroke="#000000" points="16,-78 16,-130 992,-130 992,-78 16,-78"/>
</g>
<g id="clust6" class="cluster">
<title>cluster_BaseLayoutModule_exports</title>
<polygon fill="none" stroke="#000000" points="150,-208 150,-260 1162,-260 1162,-208 150,-208"/>
</g>
<!-- LayoutComponent -->
<g id="node1" class="node">
<title>LayoutComponent</title>
<polygon fill="#ffffb3" stroke="#000000" points="1301.4902,-122 1180.5098,-122 1180.5098,-86 1301.4902,-86 1301.4902,-122"/>
<text text-anchor="middle" x="1241" y="-99.8" font-family="Times,serif" font-size="14.00" fill="#000000">LayoutComponent</text>
</g>
<!-- BaseLayoutModule -->
<g id="node3" class="node">
<title>BaseLayoutModule</title>
<polygon fill="#8dd3c7" stroke="#000000" points="728.4187,-187 725.4187,-191 704.4187,-191 701.4187,-187 601.5813,-187 601.5813,-151 728.4187,-151 728.4187,-187"/>
<text text-anchor="middle" x="665" y="-164.8" font-family="Times,serif" font-size="14.00" fill="#000000">BaseLayoutModule</text>
</g>
<!-- LayoutComponent&#45;&gt;BaseLayoutModule -->
<g id="edge1" class="edge">
<title>LayoutComponent&#45;&gt;BaseLayoutModule</title>
<path fill="none" stroke="#000000" d="M1241,-122.1061C1241,-141.3391 1241,-169 1241,-169 1241,-169 738.2898,-169 738.2898,-169"/>
<polygon fill="#000000" stroke="#000000" points="738.2898,-165.5001 728.2898,-169 738.2897,-172.5001 738.2898,-165.5001"/>
</g>
<!-- NotificationsComponent -->
<g id="node2" class="node">
<title>NotificationsComponent</title>
<polygon fill="#ffffb3" stroke="#000000" points="1162.427,-122 1007.573,-122 1007.573,-86 1162.427,-86 1162.427,-122"/>
<text text-anchor="middle" x="1085" y="-99.8" font-family="Times,serif" font-size="14.00" fill="#000000">NotificationsComponent</text>
</g>
<!-- NotificationsComponent&#45;&gt;BaseLayoutModule -->
<g id="edge2" class="edge">
<title>NotificationsComponent&#45;&gt;BaseLayoutModule</title>
<path fill="none" stroke="#000000" d="M1080.7874,-122.0225C1080.7874,-139.3734 1080.7874,-163 1080.7874,-163 1080.7874,-163 738.6018,-163 738.6018,-163"/>
<polygon fill="#000000" stroke="#000000" points="738.6018,-159.5001 728.6018,-163 738.6017,-166.5001 738.6018,-159.5001"/>
</g>
<!-- HorizontalLayout1Module  -->
<g id="node10" class="node">
<title>HorizontalLayout1Module </title>
<polygon fill="#fb8072" stroke="#000000" points="1153.5763,-252 984.4237,-252 984.4237,-216 1153.5763,-216 1153.5763,-252"/>
<text text-anchor="middle" x="1069" y="-229.8" font-family="Times,serif" font-size="14.00" fill="#000000">HorizontalLayout1Module </text>
</g>
<!-- BaseLayoutModule&#45;&gt;HorizontalLayout1Module  -->
<g id="edge9" class="edge">
<title>BaseLayoutModule&#45;&gt;HorizontalLayout1Module </title>
<path fill="none" stroke="#000000" stroke-dasharray="5,2" d="M728.4284,-175C824.5396,-175 995.9995,-175 995.9995,-175 995.9995,-175 995.9995,-205.9775 995.9995,-205.9775"/>
<polygon fill="#000000" stroke="#000000" points="992.4995,-205.9774 995.9995,-215.9775 999.4995,-205.9775 992.4995,-205.9774"/>
</g>
<!-- LayoutComponent  -->
<g id="node11" class="node">
<title>LayoutComponent </title>
<polygon fill="#fb8072" stroke="#000000" points="966.4912,-252 841.5088,-252 841.5088,-216 966.4912,-216 966.4912,-252"/>
<text text-anchor="middle" x="904" y="-229.8" font-family="Times,serif" font-size="14.00" fill="#000000">LayoutComponent </text>
</g>
<!-- BaseLayoutModule&#45;&gt;LayoutComponent  -->
<g id="edge10" class="edge">
<title>BaseLayoutModule&#45;&gt;LayoutComponent </title>
<path fill="none" stroke="#000000" stroke-dasharray="5,2" d="M728.4201,-181C799.2251,-181 904,-181 904,-181 904,-181 904,-205.7604 904,-205.7604"/>
<polygon fill="#000000" stroke="#000000" points="900.5001,-205.7604 904,-215.7604 907.5001,-205.7604 900.5001,-205.7604"/>
</g>
<!-- TimeDisplayerModule  -->
<g id="node12" class="node">
<title>TimeDisplayerModule </title>
<polygon fill="#fb8072" stroke="#000000" points="823.5204,-252 676.4796,-252 676.4796,-216 823.5204,-216 823.5204,-252"/>
<text text-anchor="middle" x="750" y="-229.8" font-family="Times,serif" font-size="14.00" fill="#000000">TimeDisplayerModule </text>
</g>
<!-- BaseLayoutModule&#45;&gt;TimeDisplayerModule  -->
<g id="edge11" class="edge">
<title>BaseLayoutModule&#45;&gt;TimeDisplayerModule </title>
<path fill="none" stroke="#000000" stroke-dasharray="5,2" d="M702.3494,-187.1061C702.3494,-187.1061 702.3494,-205.991 702.3494,-205.991"/>
<polygon fill="#000000" stroke="#000000" points="698.8495,-205.9909 702.3494,-215.991 705.8495,-205.991 698.8495,-205.9909"/>
</g>
<!-- VerticalLayout1Module  -->
<g id="node13" class="node">
<title>VerticalLayout1Module </title>
<polygon fill="#fb8072" stroke="#000000" points="658.2905,-252 503.7095,-252 503.7095,-216 658.2905,-216 658.2905,-252"/>
<text text-anchor="middle" x="581" y="-229.8" font-family="Times,serif" font-size="14.00" fill="#000000">VerticalLayout1Module </text>
</g>
<!-- BaseLayoutModule&#45;&gt;VerticalLayout1Module  -->
<g id="edge12" class="edge">
<title>BaseLayoutModule&#45;&gt;VerticalLayout1Module </title>
<path fill="none" stroke="#000000" stroke-dasharray="5,2" d="M630.0931,-187.1061C630.0931,-187.1061 630.0931,-205.991 630.0931,-205.991"/>
<polygon fill="#000000" stroke="#000000" points="626.5932,-205.9909 630.0931,-215.991 633.5932,-205.991 626.5932,-205.9909"/>
</g>
<!-- VerticalLayout2Module  -->
<g id="node14" class="node">
<title>VerticalLayout2Module </title>
<polygon fill="#fb8072" stroke="#000000" points="485.2905,-252 330.7095,-252 330.7095,-216 485.2905,-216 485.2905,-252"/>
<text text-anchor="middle" x="408" y="-229.8" font-family="Times,serif" font-size="14.00" fill="#000000">VerticalLayout2Module </text>
</g>
<!-- BaseLayoutModule&#45;&gt;VerticalLayout2Module  -->
<g id="edge13" class="edge">
<title>BaseLayoutModule&#45;&gt;VerticalLayout2Module </title>
<path fill="none" stroke="#000000" stroke-dasharray="5,2" d="M601.6472,-181C530.2061,-181 423.875,-181 423.875,-181 423.875,-181 423.875,-205.7604 423.875,-205.7604"/>
<polygon fill="#000000" stroke="#000000" points="420.3751,-205.7604 423.875,-215.7604 427.3751,-205.7604 420.3751,-205.7604"/>
</g>
<!-- VerticalLayout3Module  -->
<g id="node15" class="node">
<title>VerticalLayout3Module </title>
<polygon fill="#fb8072" stroke="#000000" points="312.2905,-252 157.7095,-252 157.7095,-216 312.2905,-216 312.2905,-252"/>
<text text-anchor="middle" x="235" y="-229.8" font-family="Times,serif" font-size="14.00" fill="#000000">VerticalLayout3Module </text>
</g>
<!-- BaseLayoutModule&#45;&gt;VerticalLayout3Module  -->
<g id="edge14" class="edge">
<title>BaseLayoutModule&#45;&gt;VerticalLayout3Module </title>
<path fill="none" stroke="#000000" stroke-dasharray="5,2" d="M601.5087,-175C485.9043,-175 252.875,-175 252.875,-175 252.875,-175 252.875,-205.9775 252.875,-205.9775"/>
<polygon fill="#000000" stroke="#000000" points="249.3751,-205.9774 252.875,-215.9775 256.3751,-205.9775 249.3751,-205.9774"/>
</g>
<!-- HorizontalLayout1Module -->
<g id="node4" class="node">
<title>HorizontalLayout1Module</title>
<polygon fill="#8dd3c7" stroke="#000000" points="984.0758,-122 981.0758,-126 960.0758,-126 957.0758,-122 817.9242,-122 817.9242,-86 984.0758,-86 984.0758,-122"/>
<text text-anchor="middle" x="901" y="-99.8" font-family="Times,serif" font-size="14.00" fill="#000000">HorizontalLayout1Module</text>
</g>
<!-- HorizontalLayout1Module&#45;&gt;BaseLayoutModule -->
<g id="edge3" class="edge">
<title>HorizontalLayout1Module&#45;&gt;BaseLayoutModule</title>
<path fill="none" stroke="#000000" d="M832.6326,-122.2396C832.6326,-137.5706 832.6326,-157 832.6326,-157 832.6326,-157 738.3747,-157 738.3747,-157"/>
<polygon fill="#000000" stroke="#000000" points="738.3747,-153.5001 728.3747,-157 738.3746,-160.5001 738.3747,-153.5001"/>
</g>
<!-- MaterialModule -->
<g id="node5" class="node">
<title>MaterialModule</title>
<polygon fill="#8dd3c7" stroke="#000000" points="799.4706,-122 796.4706,-126 775.4706,-126 772.4706,-122 692.5294,-122 692.5294,-86 799.4706,-86 799.4706,-122"/>
<text text-anchor="middle" x="746" y="-99.8" font-family="Times,serif" font-size="14.00" fill="#000000">MaterialModule</text>
</g>
<!-- MaterialModule&#45;&gt;BaseLayoutModule -->
<g id="edge4" class="edge">
<title>MaterialModule&#45;&gt;BaseLayoutModule</title>
<path fill="none" stroke="#000000" d="M710.3619,-122.1061C710.3619,-122.1061 710.3619,-140.991 710.3619,-140.991"/>
<polygon fill="#000000" stroke="#000000" points="706.8619,-140.9909 710.3619,-150.991 713.8619,-140.991 706.8619,-140.9909"/>
</g>
<!-- TimeDisplayerModule -->
<g id="node6" class="node">
<title>TimeDisplayerModule</title>
<polygon fill="#8dd3c7" stroke="#000000" points="674.5212,-122 671.5212,-126 650.5212,-126 647.5212,-122 531.4788,-122 531.4788,-86 674.5212,-86 674.5212,-122"/>
<text text-anchor="middle" x="603" y="-99.8" font-family="Times,serif" font-size="14.00" fill="#000000">TimeDisplayerModule</text>
</g>
<!-- TimeDisplayerModule&#45;&gt;BaseLayoutModule -->
<g id="edge5" class="edge">
<title>TimeDisplayerModule&#45;&gt;BaseLayoutModule</title>
<path fill="none" stroke="#000000" d="M638.2756,-122.1061C638.2756,-122.1061 638.2756,-140.991 638.2756,-140.991"/>
<polygon fill="#000000" stroke="#000000" points="634.7757,-140.9909 638.2756,-150.991 641.7757,-140.991 634.7757,-140.9909"/>
</g>
<!-- VerticalLayout1Module -->
<g id="node7" class="node">
<title>VerticalLayout1Module</title>
<polygon fill="#8dd3c7" stroke="#000000" points="513.7907,-122 510.7907,-126 489.7907,-126 486.7907,-122 362.2093,-122 362.2093,-86 513.7907,-86 513.7907,-122"/>
<text text-anchor="middle" x="438" y="-99.8" font-family="Times,serif" font-size="14.00" fill="#000000">VerticalLayout1Module</text>
</g>
<!-- VerticalLayout1Module&#45;&gt;BaseLayoutModule -->
<g id="edge6" class="edge">
<title>VerticalLayout1Module&#45;&gt;BaseLayoutModule</title>
<path fill="none" stroke="#000000" d="M508.625,-122.2396C508.625,-137.5706 508.625,-157 508.625,-157 508.625,-157 591.3963,-157 591.3963,-157"/>
<polygon fill="#000000" stroke="#000000" points="591.3963,-160.5001 601.3963,-157 591.3963,-153.5001 591.3963,-160.5001"/>
</g>
<!-- VerticalLayout2Module -->
<g id="node8" class="node">
<title>VerticalLayout2Module</title>
<polygon fill="#8dd3c7" stroke="#000000" points="344.7907,-122 341.7907,-126 320.7907,-126 317.7907,-122 193.2093,-122 193.2093,-86 344.7907,-86 344.7907,-122"/>
<text text-anchor="middle" x="269" y="-99.8" font-family="Times,serif" font-size="14.00" fill="#000000">VerticalLayout2Module</text>
</g>
<!-- VerticalLayout2Module&#45;&gt;BaseLayoutModule -->
<g id="edge7" class="edge">
<title>VerticalLayout2Module&#45;&gt;BaseLayoutModule</title>
<path fill="none" stroke="#000000" d="M337.625,-122.0225C337.625,-139.3734 337.625,-163 337.625,-163 337.625,-163 591.4906,-163 591.4906,-163"/>
<polygon fill="#000000" stroke="#000000" points="591.4907,-166.5001 601.4906,-163 591.4906,-159.5001 591.4907,-166.5001"/>
</g>
<!-- VerticalLayout3Module -->
<g id="node9" class="node">
<title>VerticalLayout3Module</title>
<polygon fill="#8dd3c7" stroke="#000000" points="175.7907,-122 172.7907,-126 151.7907,-126 148.7907,-122 24.2093,-122 24.2093,-86 175.7907,-86 175.7907,-122"/>
<text text-anchor="middle" x="100" y="-99.8" font-family="Times,serif" font-size="14.00" fill="#000000">VerticalLayout3Module</text>
</g>
<!-- VerticalLayout3Module&#45;&gt;BaseLayoutModule -->
<g id="edge8" class="edge">
<title>VerticalLayout3Module&#45;&gt;BaseLayoutModule</title>
<path fill="none" stroke="#000000" d="M166.625,-122.1061C166.625,-141.3391 166.625,-169 166.625,-169 166.625,-169 591.6276,-169 591.6276,-169"/>
<polygon fill="#000000" stroke="#000000" points="591.6276,-172.5001 601.6276,-169 591.6275,-165.5001 591.6276,-172.5001"/>
</g>
</g>
</svg>
