<?xml version="1.0" encoding="UTF-8" standalone="no"?>
<!DOCTYPE svg PUBLIC "-//W3C//DTD SVG 1.1//EN"
 "http://www.w3.org/Graphics/SVG/1.1/DTD/svg11.dtd">
<!-- Generated by graphviz version 2.40.1 (20161225.0304)
 -->
<!-- Title: dependencies Pages: 1 -->
<svg width="504pt" height="284pt"
 viewBox="0.00 0.00 504.00 284.00" xmlns="http://www.w3.org/2000/svg" xmlns:xlink="http://www.w3.org/1999/xlink">
<g id="graph0" class="graph" transform="scale(1 1) rotate(0) translate(4 280)">
<title>dependencies</title>
<polygon fill="#ffffff" stroke="transparent" points="-4,4 -4,-280 500,-280 500,4 -4,4"/>
<text text-anchor="start" x="227.0091" y="-42.4" font-family="sans-serif" font-weight="bold" font-size="14.00" fill="#000000">Legend</text>
<polygon fill="#ffffb3" stroke="transparent" points="14,-10 14,-30 34,-30 34,-10 14,-10"/>
<text text-anchor="start" x="37.629" y="-15.4" font-family="sans-serif" font-size="14.00" fill="#000000"> &#160;Declarations</text>
<polygon fill="#8dd3c7" stroke="transparent" points="127,-10 127,-30 147,-30 147,-10 127,-10"/>
<text text-anchor="start" x="150.7251" y="-15.4" font-family="sans-serif" font-size="14.00" fill="#000000"> &#160;Module</text>
<polygon fill="#80b1d3" stroke="transparent" points="213,-10 213,-30 233,-30 233,-10 213,-10"/>
<text text-anchor="start" x="236.7812" y="-15.4" font-family="sans-serif" font-size="14.00" fill="#000000"> &#160;Bootstrap</text>
<polygon fill="#fdb462" stroke="transparent" points="310,-10 310,-30 330,-30 330,-10 310,-10"/>
<text text-anchor="start" x="333.6732" y="-15.4" font-family="sans-serif" font-size="14.00" fill="#000000"> &#160;Providers</text>
<polygon fill="#fb8072" stroke="transparent" points="406,-10 406,-30 426,-30 426,-10 406,-10"/>
<text text-anchor="start" x="429.7258" y="-15.4" font-family="sans-serif" font-size="14.00" fill="#000000"> &#160;Exports</text>
<g id="clust1" class="cluster">
<title>cluster_SharedModule</title>
<polygon fill="none" stroke="#000000" stroke-dasharray="1,5" points="103,-70 103,-268 393,-268 393,-70 103,-70"/>
</g>
<g id="clust3" class="cluster">
<title>cluster_SharedModule_imports</title>
<polygon fill="none" stroke="#000000" points="115,-78 115,-130 382,-130 382,-78 115,-78"/>
</g>
<g id="clust4" class="cluster">
<title>cluster_SharedModule_exports</title>
<polygon fill="none" stroke="#000000" points="111,-208 111,-260 385,-260 385,-208 111,-208"/>
</g>
<!-- BaseLayoutModule -->
<g id="node1" class="node">
<title>BaseLayoutModule</title>
<polygon fill="#8dd3c7" stroke="#000000" points="374.4187,-122 371.4187,-126 350.4187,-126 347.4187,-122 247.5813,-122 247.5813,-86 374.4187,-86 374.4187,-122"/>
<text text-anchor="middle" x="311" y="-99.8" font-family="Times,serif" font-size="14.00" fill="#000000">BaseLayoutModule</text>
</g>
<!-- SharedModule -->
<g id="node3" class="node">
<title>SharedModule</title>
<polygon fill="#8dd3c7" stroke="#000000" points="226.4231,-187 223.4231,-191 202.4231,-191 199.4231,-187 127.5769,-187 127.5769,-151 226.4231,-151 226.4231,-187"/>
<text text-anchor="middle" x="177" y="-164.8" font-family="Times,serif" font-size="14.00" fill="#000000">SharedModule</text>
</g>
<!-- BaseLayoutModule&#45;&gt;SharedModule -->
<g id="edge1" class="edge">
<title>BaseLayoutModule&#45;&gt;SharedModule</title>
<path fill="none" stroke="#000000" d="M332.0697,-122.0225C332.0697,-139.3734 332.0697,-163 332.0697,-163 332.0697,-163 236.4914,-163 236.4914,-163"/>
<polygon fill="#000000" stroke="#000000" points="236.4914,-159.5001 226.4914,-163 236.4913,-166.5001 236.4914,-159.5001"/>
</g>
<!-- MaterialModule -->
<g id="node2" class="node">
<title>MaterialModule</title>
<polygon fill="#8dd3c7" stroke="#000000" points="229.4706,-122 226.4706,-126 205.4706,-126 202.4706,-122 122.5294,-122 122.5294,-86 229.4706,-86 229.4706,-122"/>
<text text-anchor="middle" x="176" y="-99.8" font-family="Times,serif" font-size="14.00" fill="#000000">MaterialModule</text>
</g>
<!-- MaterialModule&#45;&gt;SharedModule -->
<g id="edge2" class="edge">
<title>MaterialModule&#45;&gt;SharedModule</title>
<path fill="none" stroke="#000000" d="M177,-122.1061C177,-122.1061 177,-140.991 177,-140.991"/>
<polygon fill="#000000" stroke="#000000" points="173.5001,-140.9909 177,-150.991 180.5001,-140.991 173.5001,-140.9909"/>
</g>
<!-- BaseLayoutModule  -->
<g id="node4" class="node">
<title>BaseLayoutModule </title>
<polygon fill="#fb8072" stroke="#000000" points="376.918,-252 247.082,-252 247.082,-216 376.918,-216 376.918,-252"/>
<text text-anchor="middle" x="312" y="-229.8" font-family="Times,serif" font-size="14.00" fill="#000000">BaseLayoutModule </text>
</g>
<!-- SharedModule&#45;&gt;BaseLayoutModule  -->
<g id="edge3" class="edge">
<title>SharedModule&#45;&gt;BaseLayoutModule </title>
<path fill="none" stroke="#000000" stroke-dasharray="5,2" d="M226.5329,-175C256.8759,-175 289.9303,-175 289.9303,-175 289.9303,-175 289.9303,-205.9775 289.9303,-205.9775"/>
<polygon fill="#000000" stroke="#000000" points="286.4304,-205.9774 289.9303,-215.9775 293.4304,-205.9775 286.4304,-205.9774"/>
</g>
<!-- MaterialModule  -->
<g id="node5" class="node">
<title>MaterialModule </title>
<polygon fill="#fb8072" stroke="#000000" points="229.4716,-252 118.5284,-252 118.5284,-216 229.4716,-216 229.4716,-252"/>
<text text-anchor="middle" x="174" y="-229.8" font-family="Times,serif" font-size="14.00" fill="#000000">MaterialModule </text>
</g>
<!-- SharedModule&#45;&gt;MaterialModule  -->
<g id="edge4" class="edge">
<title>SharedModule&#45;&gt;MaterialModule </title>
<path fill="none" stroke="#000000" stroke-dasharray="5,2" d="M177,-187.1061C177,-187.1061 177,-205.991 177,-205.991"/>
<polygon fill="#000000" stroke="#000000" points="173.5001,-205.9909 177,-215.991 180.5001,-205.991 173.5001,-205.9909"/>
</g>
</g>
</svg>
