<?xml version="1.0" encoding="UTF-8" standalone="no"?>
<!DOCTYPE svg PUBLIC "-//W3C//DTD SVG 1.1//EN"
 "http://www.w3.org/Graphics/SVG/1.1/DTD/svg11.dtd">
<!-- Generated by graphviz version 2.40.1 (20161225.0304)
 -->
<!-- Title: dependencies Pages: 1 -->
<svg width="855pt" height="284pt"
 viewBox="0.00 0.00 855.00 284.00" xmlns="http://www.w3.org/2000/svg" xmlns:xlink="http://www.w3.org/1999/xlink">
<g id="graph0" class="graph" transform="scale(1 1) rotate(0) translate(4 280)">
<title>dependencies</title>
<polygon fill="#ffffff" stroke="transparent" points="-4,4 -4,-280 851,-280 851,4 -4,4"/>
<text text-anchor="start" x="402.5091" y="-42.4" font-family="sans-serif" font-weight="bold" font-size="14.00" fill="#000000">Legend</text>
<polygon fill="#ffffb3" stroke="transparent" points="189.5,-10 189.5,-30 209.5,-30 209.5,-10 189.5,-10"/>
<text text-anchor="start" x="213.129" y="-15.4" font-family="sans-serif" font-size="14.00" fill="#000000"> &#160;Declarations</text>
<polygon fill="#8dd3c7" stroke="transparent" points="302.5,-10 302.5,-30 322.5,-30 322.5,-10 302.5,-10"/>
<text text-anchor="start" x="326.2251" y="-15.4" font-family="sans-serif" font-size="14.00" fill="#000000"> &#160;Module</text>
<polygon fill="#80b1d3" stroke="transparent" points="388.5,-10 388.5,-30 408.5,-30 408.5,-10 388.5,-10"/>
<text text-anchor="start" x="412.2812" y="-15.4" font-family="sans-serif" font-size="14.00" fill="#000000"> &#160;Bootstrap</text>
<polygon fill="#fdb462" stroke="transparent" points="485.5,-10 485.5,-30 505.5,-30 505.5,-10 485.5,-10"/>
<text text-anchor="start" x="509.1732" y="-15.4" font-family="sans-serif" font-size="14.00" fill="#000000"> &#160;Providers</text>
<polygon fill="#fb8072" stroke="transparent" points="581.5,-10 581.5,-30 601.5,-30 601.5,-10 581.5,-10"/>
<text text-anchor="start" x="605.2258" y="-15.4" font-family="sans-serif" font-size="14.00" fill="#000000"> &#160;Exports</text>
<g id="clust1" class="cluster">
<title>cluster_VerticalLayout1Module</title>
<polygon fill="none" stroke="#000000" stroke-dasharray="1,5" points="8,-70 8,-268 839,-268 839,-70 8,-70"/>
</g>
<g id="clust2" class="cluster">
<title>cluster_VerticalLayout1Module_declarations</title>
<polygon fill="none" stroke="#000000" points="641,-78 641,-130 831,-130 831,-78 641,-78"/>
</g>
<g id="clust4" class="cluster">
<title>cluster_VerticalLayout1Module_imports</title>
<polygon fill="none" stroke="#000000" points="16,-78 16,-130 633,-130 633,-78 16,-78"/>
</g>
<g id="clust5" class="cluster">
<title>cluster_VerticalLayout1Module_exports</title>
<polygon fill="none" stroke="#000000" points="301,-208 301,-260 493,-260 493,-208 301,-208"/>
</g>
<!-- VerticalLayout1Component -->
<g id="node1" class="node">
<title>VerticalLayout1Component</title>
<polygon fill="#ffffb3" stroke="#000000" points="822.573,-122 649.427,-122 649.427,-86 822.573,-86 822.573,-122"/>
<text text-anchor="middle" x="736" y="-99.8" font-family="Times,serif" font-size="14.00" fill="#000000">VerticalLayout1Component</text>
</g>
<!-- VerticalLayout1Module -->
<g id="node2" class="node">
<title>VerticalLayout1Module</title>
<polygon fill="#8dd3c7" stroke="#000000" points="472.7907,-187 469.7907,-191 448.7907,-191 445.7907,-187 321.2093,-187 321.2093,-151 472.7907,-151 472.7907,-187"/>
<text text-anchor="middle" x="397" y="-164.8" font-family="Times,serif" font-size="14.00" fill="#000000">VerticalLayout1Module</text>
</g>
<!-- VerticalLayout1Component&#45;&gt;VerticalLayout1Module -->
<g id="edge1" class="edge">
<title>VerticalLayout1Component&#45;&gt;VerticalLayout1Module</title>
<path fill="none" stroke="#000000" d="M736,-122.2843C736,-143.3211 736,-175 736,-175 736,-175 482.6563,-175 482.6563,-175"/>
<polygon fill="#000000" stroke="#000000" points="482.6563,-171.5001 472.6563,-175 482.6562,-178.5001 482.6563,-171.5001"/>
</g>
<!-- VerticalLayout1Component  -->
<g id="node8" class="node">
<title>VerticalLayout1Component </title>
<polygon fill="#fb8072" stroke="#000000" points="485.0735,-252 308.9265,-252 308.9265,-216 485.0735,-216 485.0735,-252"/>
<text text-anchor="middle" x="397" y="-229.8" font-family="Times,serif" font-size="14.00" fill="#000000">VerticalLayout1Component </text>
</g>
<!-- VerticalLayout1Module&#45;&gt;VerticalLayout1Component  -->
<g id="edge7" class="edge">
<title>VerticalLayout1Module&#45;&gt;VerticalLayout1Component </title>
<path fill="none" stroke="#000000" stroke-dasharray="5,2" d="M397,-187.1061C397,-187.1061 397,-205.991 397,-205.991"/>
<polygon fill="#000000" stroke="#000000" points="393.5001,-205.9909 397,-215.991 400.5001,-205.991 393.5001,-205.9909"/>
</g>
<!-- ContentModule -->
<g id="node3" class="node">
<title>ContentModule</title>
<polygon fill="#8dd3c7" stroke="#000000" points="624.8823,-122 621.8823,-126 600.8823,-126 597.8823,-122 521.1177,-122 521.1177,-86 624.8823,-86 624.8823,-122"/>
<text text-anchor="middle" x="573" y="-99.8" font-family="Times,serif" font-size="14.00" fill="#000000">ContentModule</text>
</g>
<!-- ContentModule&#45;&gt;VerticalLayout1Module -->
<g id="edge2" class="edge">
<title>ContentModule&#45;&gt;VerticalLayout1Module</title>
<path fill="none" stroke="#000000" d="M573,-122.0225C573,-139.3734 573,-163 573,-163 573,-163 482.6613,-163 482.6613,-163"/>
<polygon fill="#000000" stroke="#000000" points="482.6613,-159.5001 472.6613,-163 482.6612,-166.5001 482.6613,-159.5001"/>
</g>
<!-- FooterModule -->
<g id="node4" class="node">
<title>FooterModule</title>
<polygon fill="#8dd3c7" stroke="#000000" points="503.0983,-122 500.0983,-126 479.0983,-126 476.0983,-122 406.9017,-122 406.9017,-86 503.0983,-86 503.0983,-122"/>
<text text-anchor="middle" x="455" y="-99.8" font-family="Times,serif" font-size="14.00" fill="#000000">FooterModule</text>
</g>
<!-- FooterModule&#45;&gt;VerticalLayout1Module -->
<g id="edge3" class="edge">
<title>FooterModule&#45;&gt;VerticalLayout1Module</title>
<path fill="none" stroke="#000000" d="M439.7981,-122.1061C439.7981,-122.1061 439.7981,-140.991 439.7981,-140.991"/>
<polygon fill="#000000" stroke="#000000" points="436.2981,-140.9909 439.7981,-150.991 443.2981,-140.991 436.2981,-140.9909"/>
</g>
<!-- NavbarModule -->
<g id="node5" class="node">
<title>NavbarModule</title>
<polygon fill="#8dd3c7" stroke="#000000" points="389.2465,-122 386.2465,-126 365.2465,-126 362.2465,-122 288.7535,-122 288.7535,-86 389.2465,-86 389.2465,-122"/>
<text text-anchor="middle" x="339" y="-99.8" font-family="Times,serif" font-size="14.00" fill="#000000">NavbarModule</text>
</g>
<!-- NavbarModule&#45;&gt;VerticalLayout1Module -->
<g id="edge4" class="edge">
<title>NavbarModule&#45;&gt;VerticalLayout1Module</title>
<path fill="none" stroke="#000000" d="M355.364,-122.1061C355.364,-122.1061 355.364,-140.991 355.364,-140.991"/>
<polygon fill="#000000" stroke="#000000" points="351.864,-140.9909 355.364,-150.991 358.864,-140.991 351.864,-140.9909"/>
</g>
<!-- QuickPanelModule -->
<g id="node6" class="node">
<title>QuickPanelModule</title>
<polygon fill="#8dd3c7" stroke="#000000" points="270.3641,-122 267.3641,-126 246.3641,-126 243.3641,-122 145.6359,-122 145.6359,-86 270.3641,-86 270.3641,-122"/>
<text text-anchor="middle" x="208" y="-99.8" font-family="Times,serif" font-size="14.00" fill="#000000">QuickPanelModule</text>
</g>
<!-- QuickPanelModule&#45;&gt;VerticalLayout1Module -->
<g id="edge5" class="edge">
<title>QuickPanelModule&#45;&gt;VerticalLayout1Module</title>
<path fill="none" stroke="#000000" d="M208,-122.0225C208,-139.3734 208,-163 208,-163 208,-163 311.2155,-163 311.2155,-163"/>
<polygon fill="#000000" stroke="#000000" points="311.2155,-166.5001 321.2155,-163 311.2154,-159.5001 311.2155,-166.5001"/>
</g>
<!-- ToolbarModule -->
<g id="node7" class="node">
<title>ToolbarModule</title>
<polygon fill="#8dd3c7" stroke="#000000" points="127.8683,-122 124.8683,-126 103.8683,-126 100.8683,-122 24.1317,-122 24.1317,-86 127.8683,-86 127.8683,-122"/>
<text text-anchor="middle" x="76" y="-99.8" font-family="Times,serif" font-size="14.00" fill="#000000">ToolbarModule</text>
</g>
<!-- ToolbarModule&#45;&gt;VerticalLayout1Module -->
<g id="edge6" class="edge">
<title>ToolbarModule&#45;&gt;VerticalLayout1Module</title>
<path fill="none" stroke="#000000" d="M76,-122.2843C76,-143.3211 76,-175 76,-175 76,-175 311.334,-175 311.334,-175"/>
<polygon fill="#000000" stroke="#000000" points="311.334,-178.5001 321.334,-175 311.3339,-171.5001 311.334,-178.5001"/>
</g>
</g>
</svg>
