<?xml version="1.0" encoding="utf-8"?>
<!-- Generator: Adobe Illustrator 21.1.0, SVG Export Plug-In . SVG Version: 6.00 Build 0)  -->
<svg version="1.1" id="Layer_1" xmlns="http://www.w3.org/2000/svg" xmlns:xlink="http://www.w3.org/1999/xlink" x="0px" y="0px"
	 viewBox="0 10 944.4 86.6" style="enable-background:new 0 0 944.4 86.6;" xml:space="preserve">
<style type="text/css">
	<!--.st0{font-family:'MyriadPro-Regular';}-->
	.st1{font-size:8px;fill:white}
	rect{fill:white}
</style>
<g>
	<rect x="8.9" y="29.2" width="0.7" height="10.4"/>
	<rect x="47.9" y="29.2" width="0.7" height="10.4"/>
	<rect x="41.4" y="32" width="0.5" height="5.2"/>
	<rect x="44.8" y="33.1" width="0.2" height="2.6"/>
	<rect x="34.9" y="32" width="0.5" height="5.2"/>
	<rect x="28.5" y="32" width="0.5" height="5.2"/>
	<rect x="22" y="32" width="0.5" height="5.2"/>
	<rect x="15.6" y="32" width="0.5" height="5.2"/>
	<rect x="8.9" y="34.2" width="935.5" height="0.9"/>
	<rect x="38.3" y="33.1" width="0.2" height="2.6"/>
	<rect x="31.8" y="33.1" width="0.2" height="2.6"/>
	<rect x="25.4" y="33.1" width="0.2" height="2.6"/>
	<rect x="18.9" y="33.1" width="0.2" height="2.6"/>
	<rect x="12.4" y="33.1" width="0.2" height="2.6"/>
	<rect x="86.9" y="29.2" width="0.7" height="10.4"/>
	<rect x="80.4" y="32" width="0.5" height="5.2"/>
	<rect x="83.7" y="33.1" width="0.2" height="2.6"/>
	<rect x="73.9" y="32" width="0.5" height="5.2"/>
	<rect x="67.5" y="32" width="0.5" height="5.2"/>
	<rect x="61" y="32" width="0.5" height="5.2"/>
	<rect x="54.5" y="32" width="0.5" height="5.2"/>
	<rect x="77.3" y="33.1" width="0.2" height="2.6"/>
	<rect x="70.8" y="33.1" width="0.2" height="2.6"/>
	<rect x="64.3" y="33.1" width="0.2" height="2.6"/>
	<rect x="57.9" y="33.1" width="0.2" height="2.6"/>
	<rect x="51.4" y="33.1" width="0.2" height="2.6"/>
	<rect x="125.8" y="29.2" width="0.7" height="10.4"/>
	<rect x="119.4" y="32" width="0.5" height="5.2"/>
	<rect x="122.7" y="33.1" width="0.2" height="2.6"/>
	<rect x="112.9" y="32" width="0.5" height="5.2"/>
	<rect x="106.4" y="32" width="0.5" height="5.2"/>
	<rect x="100" y="32" width="0.5" height="5.2"/>
	<rect x="93.5" y="32" width="0.5" height="5.2"/>
	<rect x="116.3" y="33.1" width="0.2" height="2.6"/>
	<rect x="109.8" y="33.1" width="0.2" height="2.6"/>
	<rect x="103.3" y="33.1" width="0.2" height="2.6"/>
	<rect x="96.9" y="33.1" width="0.2" height="2.6"/>
	<rect x="90.4" y="33.1" width="0.2" height="2.6"/>
	<rect x="164.8" y="29.2" width="0.7" height="10.4"/>
	<rect x="158.4" y="32" width="0.5" height="5.2"/>
	<rect x="161.7" y="33.1" width="0.2" height="2.6"/>
	<rect x="151.9" y="32" width="0.5" height="5.2"/>
	<rect x="145.4" y="32" width="0.5" height="5.2"/>
	<rect x="139" y="32" width="0.5" height="5.2"/>
	<rect x="132.5" y="32" width="0.5" height="5.2"/>
	<rect x="155.2" y="33.1" width="0.2" height="2.6"/>
	<rect x="148.8" y="33.1" width="0.2" height="2.6"/>
	<rect x="142.3" y="33.1" width="0.2" height="2.6"/>
	<rect x="135.8" y="33.1" width="0.2" height="2.6"/>
	<rect x="129.4" y="33.1" width="0.2" height="2.6"/>
	<rect x="203.8" y="29.2" width="0.7" height="10.4"/>
	<rect x="197.3" y="32" width="0.5" height="5.2"/>
	<rect x="200.7" y="33.1" width="0.2" height="2.6"/>
	<rect x="190.9" y="32" width="0.5" height="5.2"/>
	<rect x="184.4" y="32" width="0.5" height="5.2"/>
	<rect x="177.9" y="32" width="0.5" height="5.2"/>
	<rect x="171.5" y="32" width="0.5" height="5.2"/>
	<rect x="194.2" y="33.1" width="0.2" height="2.6"/>
	<rect x="187.8" y="33.1" width="0.2" height="2.6"/>
	<rect x="181.3" y="33.1" width="0.2" height="2.6"/>
	<rect x="174.8" y="33.1" width="0.2" height="2.6"/>
	<rect x="168.4" y="33.1" width="0.2" height="2.6"/>
	<rect x="242.8" y="29.2" width="0.7" height="10.4"/>
	<rect x="236.3" y="32" width="0.5" height="5.2"/>
	<rect x="239.6" y="33.1" width="0.2" height="2.6"/>
	<rect x="229.8" y="32" width="0.5" height="5.2"/>
	<rect x="223.4" y="32" width="0.5" height="5.2"/>
	<rect x="216.9" y="32" width="0.5" height="5.2"/>
	<rect x="210.4" y="32" width="0.5" height="5.2"/>
	<rect x="233.2" y="33.1" width="0.2" height="2.6"/>
	<rect x="226.7" y="33.1" width="0.2" height="2.6"/>
	<rect x="220.3" y="33.1" width="0.2" height="2.6"/>
	<rect x="213.8" y="33.1" width="0.2" height="2.6"/>
	<rect x="207.3" y="33.1" width="0.2" height="2.6"/>
	<rect x="281.8" y="29.2" width="0.7" height="10.4"/>
	<rect x="275.3" y="32" width="0.5" height="5.2"/>
	<rect x="278.6" y="33.1" width="0.2" height="2.6"/>
	<rect x="268.8" y="32" width="0.5" height="5.2"/>
	<rect x="262.4" y="32" width="0.5" height="5.2"/>
	<rect x="255.9" y="32" width="0.5" height="5.2"/>
	<rect x="249.4" y="32" width="0.5" height="5.2"/>
	<rect x="272.2" y="33.1" width="0.2" height="2.6"/>
	<rect x="265.7" y="33.1" width="0.2" height="2.6"/>
	<rect x="259.3" y="33.1" width="0.2" height="2.6"/>
	<rect x="252.8" y="33.1" width="0.2" height="2.6"/>
	<rect x="246.3" y="33.1" width="0.2" height="2.6"/>
	<rect x="320.8" y="29.2" width="0.7" height="10.4"/>
	<rect x="314.3" y="32" width="0.5" height="5.2"/>
	<rect x="317.6" y="33.1" width="0.2" height="2.6"/>
	<rect x="307.8" y="32" width="0.5" height="5.2"/>
	<rect x="301.4" y="32" width="0.5" height="5.2"/>
	<rect x="294.9" y="32" width="0.5" height="5.2"/>
	<rect x="288.4" y="32" width="0.5" height="5.2"/>
	<rect x="311.2" y="33.1" width="0.2" height="2.6"/>
	<rect x="304.7" y="33.1" width="0.2" height="2.6"/>
	<rect x="298.3" y="33.1" width="0.2" height="2.6"/>
	<rect x="291.8" y="33.1" width="0.2" height="2.6"/>
	<rect x="285.3" y="33.1" width="0.2" height="2.6"/>
	<rect x="359.8" y="29.2" width="0.7" height="10.4"/>
	<rect x="353.3" y="32" width="0.5" height="5.2"/>
	<rect x="356.6" y="33.1" width="0.2" height="2.6"/>
	<rect x="346.8" y="32" width="0.5" height="5.2"/>
	<rect x="340.4" y="32" width="0.5" height="5.2"/>
	<rect x="333.9" y="32" width="0.5" height="5.2"/>
	<rect x="327.4" y="32" width="0.5" height="5.2"/>
	<rect x="350.2" y="33.1" width="0.2" height="2.6"/>
	<rect x="343.7" y="33.1" width="0.2" height="2.6"/>
	<rect x="337.3" y="33.1" width="0.2" height="2.6"/>
	<rect x="330.8" y="33.1" width="0.2" height="2.6"/>
	<rect x="324.3" y="33.1" width="0.2" height="2.6"/>
	<rect x="398.7" y="29.2" width="0.7" height="10.4"/>
	<rect x="392.3" y="32" width="0.5" height="5.2"/>
	<rect x="395.6" y="33.1" width="0.2" height="2.6"/>
	<rect x="385.8" y="32" width="0.5" height="5.2"/>
	<rect x="379.3" y="32" width="0.5" height="5.2"/>
	<rect x="372.9" y="32" width="0.5" height="5.2"/>
	<rect x="366.4" y="32" width="0.5" height="5.2"/>
	<rect x="389.2" y="33.1" width="0.2" height="2.6"/>
	<rect x="382.7" y="33.1" width="0.2" height="2.6"/>
	<rect x="376.2" y="33.1" width="0.2" height="2.6"/>
	<rect x="369.8" y="33.1" width="0.2" height="2.6"/>
	<rect x="363.3" y="33.1" width="0.2" height="2.6"/>
	<rect x="437.7" y="29.2" width="0.7" height="10.4"/>
	<rect x="431.3" y="32" width="0.5" height="5.2"/>
	<rect x="434.6" y="33.1" width="0.2" height="2.6"/>
	<rect x="424.8" y="32" width="0.5" height="5.2"/>
	<rect x="418.3" y="32" width="0.5" height="5.2"/>
	<rect x="411.9" y="32" width="0.5" height="5.2"/>
	<rect x="405.4" y="32" width="0.5" height="5.2"/>
	<rect x="428.1" y="33.1" width="0.2" height="2.6"/>
	<rect x="421.7" y="33.1" width="0.2" height="2.6"/>
	<rect x="415.2" y="33.1" width="0.2" height="2.6"/>
	<rect x="408.7" y="33.1" width="0.2" height="2.6"/>
	<rect x="402.3" y="33.1" width="0.2" height="2.6"/>
	<rect x="476.7" y="29.2" width="0.7" height="10.4"/>
	<rect x="470.2" y="32" width="0.5" height="5.2"/>
	<rect x="473.6" y="33.1" width="0.2" height="2.6"/>
	<rect x="463.8" y="32" width="0.5" height="5.2"/>
	<rect x="457.3" y="32" width="0.5" height="5.2"/>
	<rect x="450.9" y="32" width="0.5" height="5.2"/>
	<rect x="444.4" y="32" width="0.5" height="5.2"/>
	<rect x="467.1" y="33.1" width="0.2" height="2.6"/>
	<rect x="460.7" y="33.1" width="0.2" height="2.6"/>
	<rect x="454.2" y="33.1" width="0.2" height="2.6"/>
	<rect x="447.7" y="33.1" width="0.2" height="2.6"/>
	<rect x="441.3" y="33.1" width="0.2" height="2.6"/>
	<rect x="515.7" y="29.2" width="0.7" height="10.4"/>
	<rect x="509.2" y="32" width="0.5" height="5.2"/>
	<rect x="512.6" y="33.1" width="0.2" height="2.6"/>
	<rect x="502.8" y="32" width="0.5" height="5.2"/>
	<rect x="496.3" y="32" width="0.5" height="5.2"/>
	<rect x="489.8" y="32" width="0.5" height="5.2"/>
	<rect x="483.4" y="32" width="0.5" height="5.2"/>
	<rect x="506.1" y="33.1" width="0.2" height="2.6"/>
	<rect x="499.6" y="33.1" width="0.2" height="2.6"/>
	<rect x="493.2" y="33.1" width="0.2" height="2.6"/>
	<rect x="486.7" y="33.1" width="0.2" height="2.6"/>
	<rect x="480.3" y="33.1" width="0.2" height="2.6"/>
	<rect x="554.7" y="29.2" width="0.7" height="10.4"/>
	<rect x="548.2" y="32" width="0.5" height="5.2"/>
	<rect x="551.5" y="33.1" width="0.2" height="2.6"/>
	<rect x="541.7" y="32" width="0.5" height="5.2"/>
	<rect x="535.3" y="32" width="0.5" height="5.2"/>
	<rect x="528.8" y="32" width="0.5" height="5.2"/>
	<rect x="522.3" y="32" width="0.5" height="5.2"/>
	<rect x="545.1" y="33.1" width="0.2" height="2.6"/>
	<rect x="538.6" y="33.1" width="0.2" height="2.6"/>
	<rect x="532.2" y="33.1" width="0.2" height="2.6"/>
	<rect x="525.7" y="33.1" width="0.2" height="2.6"/>
	<rect x="519.2" y="33.1" width="0.2" height="2.6"/>
	<rect x="593.6" y="29.2" width="0.7" height="10.4"/>
	<rect x="587.2" y="32" width="0.5" height="5.2"/>
	<rect x="590.5" y="33.1" width="0.2" height="2.6"/>
	<rect x="580.7" y="32" width="0.5" height="5.2"/>
	<rect x="574.3" y="32" width="0.5" height="5.2"/>
	<rect x="567.8" y="32" width="0.5" height="5.2"/>
	<rect x="561.3" y="32" width="0.5" height="5.2"/>
	<rect x="584.1" y="33.1" width="0.2" height="2.6"/>
	<rect x="577.6" y="33.1" width="0.2" height="2.6"/>
	<rect x="571.1" y="33.1" width="0.2" height="2.6"/>
	<rect x="564.7" y="33.1" width="0.2" height="2.6"/>
	<rect x="558.2" y="33.1" width="0.2" height="2.6"/>
	<rect x="632.6" y="29.2" width="0.7" height="10.4"/>
	<rect x="626.2" y="32" width="0.5" height="5.2"/>
	<rect x="629.5" y="33.1" width="0.2" height="2.6"/>
	<rect x="619.7" y="32" width="0.5" height="5.2"/>
	<rect x="613.2" y="32" width="0.5" height="5.2"/>
	<rect x="606.8" y="32" width="0.5" height="5.2"/>
	<rect x="600.3" y="32" width="0.5" height="5.2"/>
	<rect x="623" y="33.1" width="0.2" height="2.6"/>
	<rect x="616.6" y="33.1" width="0.2" height="2.6"/>
	<rect x="610.1" y="33.1" width="0.2" height="2.6"/>
	<rect x="603.6" y="33.1" width="0.2" height="2.6"/>
	<rect x="597.2" y="33.1" width="0.2" height="2.6"/>
	<rect x="671.6" y="29.2" width="0.7" height="10.4"/>
	<rect x="665.1" y="32" width="0.5" height="5.2"/>
	<rect x="668.5" y="33.1" width="0.2" height="2.6"/>
	<rect x="658.7" y="32" width="0.5" height="5.2"/>
	<rect x="652.2" y="32" width="0.5" height="5.2"/>
	<rect x="645.7" y="32" width="0.5" height="5.2"/>
	<rect x="639.3" y="32" width="0.5" height="5.2"/>
	<rect x="662" y="33.1" width="0.2" height="2.6"/>
	<rect x="655.5" y="33.1" width="0.2" height="2.6"/>
	<rect x="649.1" y="33.1" width="0.2" height="2.6"/>
	<rect x="642.6" y="33.1" width="0.2" height="2.6"/>
	<rect x="636.2" y="33.1" width="0.2" height="2.6"/>
	<rect x="710.6" y="29.2" width="0.7" height="10.4"/>
	<rect x="704.1" y="32" width="0.5" height="5.2"/>
	<rect x="707.4" y="33.1" width="0.2" height="2.6"/>
	<rect x="697.6" y="32" width="0.5" height="5.2"/>
	<rect x="691.2" y="32" width="0.5" height="5.2"/>
	<rect x="684.7" y="32" width="0.5" height="5.2"/>
	<rect x="678.2" y="32" width="0.5" height="5.2"/>
	<rect x="701" y="33.1" width="0.2" height="2.6"/>
	<rect x="694.5" y="33.1" width="0.2" height="2.6"/>
	<rect x="688.1" y="33.1" width="0.2" height="2.6"/>
	<rect x="681.6" y="33.1" width="0.2" height="2.6"/>
	<rect x="675.1" y="33.1" width="0.2" height="2.6"/>
	<rect x="749.5" y="29.2" width="0.7" height="10.4"/>
	<rect x="743.1" y="32" width="0.5" height="5.2"/>
	<rect x="746.4" y="33.1" width="0.2" height="2.6"/>
	<rect x="736.6" y="32" width="0.5" height="5.2"/>
	<rect x="730.2" y="32" width="0.5" height="5.2"/>
	<rect x="723.7" y="32" width="0.5" height="5.2"/>
	<rect x="717.2" y="32" width="0.5" height="5.2"/>
	<rect x="740" y="33.1" width="0.2" height="2.6"/>
	<rect x="733.5" y="33.1" width="0.2" height="2.6"/>
	<rect x="727" y="33.1" width="0.2" height="2.6"/>
	<rect x="720.6" y="33.1" width="0.2" height="2.6"/>
	<rect x="714.1" y="33.1" width="0.2" height="2.6"/>
	<rect x="788.5" y="29.2" width="0.7" height="10.4"/>
	<rect x="782.1" y="32" width="0.5" height="5.2"/>
	<rect x="785.4" y="33.1" width="0.2" height="2.6"/>
	<rect x="775.6" y="32" width="0.5" height="5.2"/>
	<rect x="769.1" y="32" width="0.5" height="5.2"/>
	<rect x="762.7" y="32" width="0.5" height="5.2"/>
	<rect x="756.2" y="32" width="0.5" height="5.2"/>
	<rect x="778.9" y="33.1" width="0.2" height="2.6"/>
	<rect x="772.5" y="33.1" width="0.2" height="2.6"/>
	<rect x="766" y="33.1" width="0.2" height="2.6"/>
	<rect x="759.5" y="33.1" width="0.2" height="2.6"/>
	<rect x="753.1" y="33.1" width="0.2" height="2.6"/>
	<rect x="827.5" y="29.2" width="0.7" height="10.4"/>
	<rect x="821" y="32" width="0.5" height="5.2"/>
	<rect x="824.4" y="33.1" width="0.2" height="2.6"/>
	<rect x="814.6" y="32" width="0.5" height="5.2"/>
	<rect x="808.1" y="32" width="0.5" height="5.2"/>
	<rect x="801.6" y="32" width="0.5" height="5.2"/>
	<rect x="795.2" y="32" width="0.5" height="5.2"/>
	<rect x="817.9" y="33.1" width="0.2" height="2.6"/>
	<rect x="811.4" y="33.1" width="0.2" height="2.6"/>
	<rect x="805" y="33.1" width="0.2" height="2.6"/>
	<rect x="798.5" y="33.1" width="0.2" height="2.6"/>
	<rect x="792.1" y="33.1" width="0.2" height="2.6"/>
	<rect x="866.5" y="29.2" width="0.7" height="10.4"/>
	<rect x="860" y="32" width="0.5" height="5.2"/>
	<rect x="863.4" y="33.1" width="0.2" height="2.6"/>
	<rect x="853.6" y="32" width="0.5" height="5.2"/>
	<rect x="847.1" y="32" width="0.5" height="5.2"/>
	<rect x="840.6" y="32" width="0.5" height="5.2"/>
	<rect x="834.2" y="32" width="0.5" height="5.2"/>
	<rect x="856.9" y="33.1" width="0.2" height="2.6"/>
	<rect x="850.4" y="33.1" width="0.2" height="2.6"/>
	<rect x="844" y="33.1" width="0.2" height="2.6"/>
	<rect x="837.5" y="33.1" width="0.2" height="2.6"/>
	<rect x="831.1" y="33.1" width="0.2" height="2.6"/>
	<rect x="905.5" y="29.2" width="0.7" height="10.4"/>
	<rect x="899" y="32" width="0.5" height="5.2"/>
	<rect x="902.3" y="33.1" width="0.2" height="2.6"/>
	<rect x="892.5" y="32" width="0.5" height="5.2"/>
	<rect x="886.1" y="32" width="0.5" height="5.2"/>
	<rect x="879.6" y="32" width="0.5" height="5.2"/>
	<rect x="873.1" y="32" width="0.5" height="5.2"/>
	<rect x="895.9" y="33.1" width="0.2" height="2.6"/>
	<rect x="889.4" y="33.1" width="0.2" height="2.6"/>
	<rect x="883" y="33.1" width="0.2" height="2.6"/>
	<rect x="876.5" y="33.1" width="0.2" height="2.6"/>
	<rect x="870" y="33.1" width="0.2" height="2.6"/>
	<rect x="938" y="32" width="0.5" height="5.2"/>
	<rect x="941.3" y="33.1" width="0.2" height="2.6"/>
	<rect x="931.5" y="32" width="0.5" height="5.2"/>
	<rect x="925" y="32" width="0.5" height="5.2"/>
	<rect x="918.6" y="32" width="0.5" height="5.2"/>
	<rect x="912.1" y="32" width="0.5" height="5.2"/>
	<rect x="934.9" y="33.1" width="0.2" height="2.6"/>
	<rect x="928.4" y="33.1" width="0.2" height="2.6"/>
	<rect x="921.9" y="33.1" width="0.2" height="2.6"/>
	<rect x="915.5" y="33.1" width="0.2" height="2.6"/>
	<rect x="909" y="33.1" width="0.2" height="2.6"/>
	<text transform="matrix(1 0 0 1 0 27.7682)" class="st0 st1">00:00</text>
	<text transform="matrix(1 0 0 1 39.2498 27.7684)" class="st0 st1">01:00</text>
	<text transform="matrix(1 0 0 1 78.0415 27.7684)" class="st0 st1">02:00</text>
	<text transform="matrix(1 0 0 1 116.7498 27.7684)" class="st0 st1">03:00</text>
	<text transform="matrix(1 0 0 1 155.6665 27.7684)" class="st0 st1">04:00</text>
	<text transform="matrix(1 0 0 1 195.0415 27.7684)" class="st0 st1">05:00</text>
	<text transform="matrix(1 0 0 1 233.9582 27.7684)" class="st0 st1">06:00</text>
	<text transform="matrix(1 0 0 1 273.0415 27.7684)" class="st0 st1">07:00</text>
	<text transform="matrix(1 0 0 1 312.0832 27.7684)" class="st0 st1">08:00</text>
	<text transform="matrix(1 0 0 1 351.1248 27.7684)" class="st0 st1">09:00</text>
	<text transform="matrix(1 0 0 1 389.8748 27.7684)" class="st0 st1">10:00</text>
	<text transform="matrix(1 0 0 1 429.1665 27.7684)" class="st0 st1">11:00</text>
	<text transform="matrix(1 0 0 1 467.8331 27.7684)" class="st0 st1">12:00</text>
	<text transform="matrix(1 0 0 1 507.0831 27.7684)" class="st0 st1">13:00</text>
	<text transform="matrix(1 0 0 1 545.9582 27.7684)" class="st0 st1">14:00</text>
	<text transform="matrix(1 0 0 1 584.8332 27.7684)" class="st0 st1">15:00</text>
	<text transform="matrix(1 0 0 1 623.8332 27.7684)" class="st0 st1">16:00</text>
	<text transform="matrix(1 0 0 1 662.9999 27.7684)" class="st0 st1">17:00</text>
	<text transform="matrix(1 0 0 1 701.9582 27.7684)" class="st0 st1">18:00</text>
	<text transform="matrix(1 0 0 1 740.9582 27.7684)" class="st0 st1">19:00</text>
	<text transform="matrix(1 0 0 1 779.9165 27.7684)" class="st0 st1">20:00</text>
	<text transform="matrix(1 0 0 1 818.604 27.7684)" class="st0 st1">21:00</text>
	<text transform="matrix(1 0 0 1 857.854 27.7684)" class="st0 st1">22:00</text>
	<text transform="matrix(1 0 0 1 896.9165 27.7684)" class="st0 st1">23:00</text>

	<circle ></circle>
</g>
</svg>
