<?xml version="1.0" encoding="UTF-8" standalone="no"?>
<!DOCTYPE svg PUBLIC "-//W3C//DTD SVG 1.1//EN"
 "http://www.w3.org/Graphics/SVG/1.1/DTD/svg11.dtd">
<!-- Generated by graphviz version 2.40.1 (20161225.0304)
 -->
<!-- Title: dependencies Pages: 1 -->
<svg width="617pt" height="284pt"
 viewBox="0.00 0.00 617.00 284.00" xmlns="http://www.w3.org/2000/svg" xmlns:xlink="http://www.w3.org/1999/xlink">
<g id="graph0" class="graph" transform="scale(1 1) rotate(0) translate(4 280)">
<title>dependencies</title>
<polygon fill="#ffffff" stroke="transparent" points="-4,4 -4,-280 613,-280 613,4 -4,4"/>
<text text-anchor="start" x="283.5091" y="-42.4" font-family="sans-serif" font-weight="bold" font-size="14.00" fill="#000000">Legend</text>
<polygon fill="#ffffb3" stroke="transparent" points="70.5,-10 70.5,-30 90.5,-30 90.5,-10 70.5,-10"/>
<text text-anchor="start" x="94.129" y="-15.4" font-family="sans-serif" font-size="14.00" fill="#000000"> &#160;Declarations</text>
<polygon fill="#8dd3c7" stroke="transparent" points="183.5,-10 183.5,-30 203.5,-30 203.5,-10 183.5,-10"/>
<text text-anchor="start" x="207.2251" y="-15.4" font-family="sans-serif" font-size="14.00" fill="#000000"> &#160;Module</text>
<polygon fill="#80b1d3" stroke="transparent" points="269.5,-10 269.5,-30 289.5,-30 289.5,-10 269.5,-10"/>
<text text-anchor="start" x="293.2812" y="-15.4" font-family="sans-serif" font-size="14.00" fill="#000000"> &#160;Bootstrap</text>
<polygon fill="#fdb462" stroke="transparent" points="366.5,-10 366.5,-30 386.5,-30 386.5,-10 366.5,-10"/>
<text text-anchor="start" x="390.1732" y="-15.4" font-family="sans-serif" font-size="14.00" fill="#000000"> &#160;Providers</text>
<polygon fill="#fb8072" stroke="transparent" points="462.5,-10 462.5,-30 482.5,-30 482.5,-10 462.5,-10"/>
<text text-anchor="start" x="486.2258" y="-15.4" font-family="sans-serif" font-size="14.00" fill="#000000"> &#160;Exports</text>
<g id="clust1" class="cluster">
<title>cluster_ToolbarModule</title>
<polygon fill="none" stroke="#000000" stroke-dasharray="1,5" points="8,-70 8,-268 601,-268 601,-70 8,-70"/>
</g>
<g id="clust2" class="cluster">
<title>cluster_ToolbarModule_declarations</title>
<polygon fill="none" stroke="#000000" points="451,-78 451,-130 593,-130 593,-78 451,-78"/>
</g>
<g id="clust4" class="cluster">
<title>cluster_ToolbarModule_imports</title>
<polygon fill="none" stroke="#000000" points="16,-78 16,-130 443,-130 443,-78 16,-78"/>
</g>
<g id="clust5" class="cluster">
<title>cluster_ToolbarModule_exports</title>
<polygon fill="none" stroke="#000000" points="242,-208 242,-260 388,-260 388,-208 242,-208"/>
</g>
<!-- ToolbarComponent -->
<g id="node1" class="node">
<title>ToolbarComponent</title>
<polygon fill="#ffffb3" stroke="#000000" points="584.6513,-122 459.3487,-122 459.3487,-86 584.6513,-86 584.6513,-122"/>
<text text-anchor="middle" x="522" y="-99.8" font-family="Times,serif" font-size="14.00" fill="#000000">ToolbarComponent</text>
</g>
<!-- ToolbarModule -->
<g id="node2" class="node">
<title>ToolbarModule</title>
<polygon fill="#8dd3c7" stroke="#000000" points="366.8683,-187 363.8683,-191 342.8683,-191 339.8683,-187 263.1317,-187 263.1317,-151 366.8683,-151 366.8683,-187"/>
<text text-anchor="middle" x="315" y="-164.8" font-family="Times,serif" font-size="14.00" fill="#000000">ToolbarModule</text>
</g>
<!-- ToolbarComponent&#45;&gt;ToolbarModule -->
<g id="edge1" class="edge">
<title>ToolbarComponent&#45;&gt;ToolbarModule</title>
<path fill="none" stroke="#000000" d="M522,-122.1061C522,-141.3391 522,-169 522,-169 522,-169 376.9677,-169 376.9677,-169"/>
<polygon fill="#000000" stroke="#000000" points="376.9677,-165.5001 366.9677,-169 376.9676,-172.5001 376.9677,-165.5001"/>
</g>
<!-- ToolbarComponent  -->
<g id="node6" class="node">
<title>ToolbarComponent </title>
<polygon fill="#fb8072" stroke="#000000" points="379.6509,-252 250.3491,-252 250.3491,-216 379.6509,-216 379.6509,-252"/>
<text text-anchor="middle" x="315" y="-229.8" font-family="Times,serif" font-size="14.00" fill="#000000">ToolbarComponent </text>
</g>
<!-- ToolbarModule&#45;&gt;ToolbarComponent  -->
<g id="edge5" class="edge">
<title>ToolbarModule&#45;&gt;ToolbarComponent </title>
<path fill="none" stroke="#000000" stroke-dasharray="5,2" d="M315,-187.1061C315,-187.1061 315,-205.991 315,-205.991"/>
<polygon fill="#000000" stroke="#000000" points="311.5001,-205.9909 315,-215.991 318.5001,-205.991 311.5001,-205.9909"/>
</g>
<!-- MaterialModule -->
<g id="node3" class="node">
<title>MaterialModule</title>
<polygon fill="#8dd3c7" stroke="#000000" points="435.4706,-122 432.4706,-126 411.4706,-126 408.4706,-122 328.5294,-122 328.5294,-86 435.4706,-86 435.4706,-122"/>
<text text-anchor="middle" x="382" y="-99.8" font-family="Times,serif" font-size="14.00" fill="#000000">MaterialModule</text>
</g>
<!-- MaterialModule&#45;&gt;ToolbarModule -->
<g id="edge2" class="edge">
<title>MaterialModule&#45;&gt;ToolbarModule</title>
<path fill="none" stroke="#000000" d="M347.7244,-122.1061C347.7244,-122.1061 347.7244,-140.991 347.7244,-140.991"/>
<polygon fill="#000000" stroke="#000000" points="344.2245,-140.9909 347.7244,-150.991 351.2245,-140.991 344.2245,-140.9909"/>
</g>
<!-- QuickPanelModule -->
<g id="node4" class="node">
<title>QuickPanelModule</title>
<polygon fill="#8dd3c7" stroke="#000000" points="310.3641,-122 307.3641,-126 286.3641,-126 283.3641,-122 185.6359,-122 185.6359,-86 310.3641,-86 310.3641,-122"/>
<text text-anchor="middle" x="248" y="-99.8" font-family="Times,serif" font-size="14.00" fill="#000000">QuickPanelModule</text>
</g>
<!-- QuickPanelModule&#45;&gt;ToolbarModule -->
<g id="edge3" class="edge">
<title>QuickPanelModule&#45;&gt;ToolbarModule</title>
<path fill="none" stroke="#000000" d="M286.749,-122.1061C286.749,-122.1061 286.749,-140.991 286.749,-140.991"/>
<polygon fill="#000000" stroke="#000000" points="283.249,-140.9909 286.749,-150.991 290.249,-140.991 283.249,-140.9909"/>
</g>
<!-- TimeDisplayerModule -->
<g id="node5" class="node">
<title>TimeDisplayerModule</title>
<polygon fill="#8dd3c7" stroke="#000000" points="167.5212,-122 164.5212,-126 143.5212,-126 140.5212,-122 24.4788,-122 24.4788,-86 167.5212,-86 167.5212,-122"/>
<text text-anchor="middle" x="96" y="-99.8" font-family="Times,serif" font-size="14.00" fill="#000000">TimeDisplayerModule</text>
</g>
<!-- TimeDisplayerModule&#45;&gt;ToolbarModule -->
<g id="edge4" class="edge">
<title>TimeDisplayerModule&#45;&gt;ToolbarModule</title>
<path fill="none" stroke="#000000" d="M96,-122.1061C96,-141.3391 96,-169 96,-169 96,-169 253.1001,-169 253.1001,-169"/>
<polygon fill="#000000" stroke="#000000" points="253.1001,-172.5001 263.1001,-169 253.1,-165.5001 253.1001,-172.5001"/>
</g>
</g>
</svg>
